<svg width="24" height="24" viewBox="0 0 24 24" fill="none" xmlns="http://www.w3.org/2000/svg">
<path d="M24 12C24 18.6274 18.6274 24 12 24C5.37258 24 0 18.6274 0 12C0 5.37258 5.37258 0 12 0C18.6274 0 24 5.37258 24 12Z" fill="#F08705"/>
<path d="M16.7063 15.7063L19.7063 12.7063C20.0969 12.3156 20.0969 11.6813 19.7063 11.2906L16.7063 8.29063C16.3156 7.9 15.6812 7.9 15.2906 8.29063C14.9 8.68125 14.9 9.31563 15.2906 9.70625L16.5844 11H7.4125L8.70625 9.70625C9.09688 9.31563 9.09688 8.68125 8.70625 8.29063C8.31563 7.9 7.68125 7.9 7.29063 8.29063L4.29063 11.2906C3.9 11.6813 3.9 12.3156 4.29063 12.7063L7.29063 15.7063C7.68125 16.0969 8.31563 16.0969 8.70625 15.7063C9.09688 15.3156 9.09688 14.6812 8.70625 14.2906L7.41563 13H16.5875L15.2937 14.2937C14.9031 14.6844 14.9031 15.3188 15.2937 15.7094C15.6844 16.1 16.3188 16.1 16.7094 15.7094L16.7063 15.7063Z" fill="white"/>
</svg>
