<svg width="15" height="16" viewBox="0 0 15 16" fill="none" xmlns="http://www.w3.org/2000/svg">
<path d="M6.76591 15.3343C6.73887 15.3806 6.71396 15.4239 6.69124 15.4638L6.3242 15.4202C6.31422 15.3752 6.30317 15.3266 6.29099 15.2747C6.21711 14.9595 6.10164 14.5193 5.93438 14.0149C5.60225 13.0132 5.05544 11.7258 4.20046 10.6655L4.20055 10.6654L4.19362 10.6571C3.15653 9.4261 1.93357 8.35216 0.566284 7.47026L0.665274 7.03635C2.31171 6.57516 3.83601 5.77484 5.13045 4.68871L5.13079 4.68842C6.20217 3.78785 7.00047 2.65937 7.52743 1.76963C7.79228 1.32244 7.99187 0.929964 8.12578 0.648022C8.14972 0.597615 8.17158 0.550698 8.19136 0.507586L8.56271 0.51613C8.56966 0.543941 8.57703 0.57306 8.58482 0.603431C8.66078 0.899342 8.77764 1.31526 8.94229 1.80011C9.27011 2.76551 9.79403 4.02412 10.5751 5.1539L10.5758 5.15488C11.2477 6.12194 12.3004 7.04508 13.1564 7.71228C13.5893 8.04971 13.9818 8.32918 14.2664 8.5245C14.3455 8.5788 14.4164 8.62667 14.4775 8.66754L14.4393 9.13729C12.7536 9.72078 11.179 10.5685 9.78034 11.6472L9.7803 11.6471L9.77386 11.6523C8.8067 12.4239 7.99412 13.4596 7.4303 14.2844C7.14626 14.6999 6.92079 15.0686 6.76591 15.3343Z" fill="#FFD600" stroke="#F9DC4A"/>
</svg>
