<svg width="13" height="14" viewBox="0 0 13 14" fill="none" xmlns="http://www.w3.org/2000/svg">
<path d="M5.80516 13.3878C5.78994 13.4141 5.7755 13.4393 5.76185 13.4633L5.53655 13.4363C5.53054 13.4095 5.52414 13.3814 5.51734 13.3521C5.45299 13.075 5.35246 12.688 5.20686 12.2447C4.91802 11.3652 4.44136 10.231 3.69376 9.29486L3.69385 9.29479L3.68697 9.28654C2.79327 8.21551 1.74098 7.27969 0.565144 6.50892L0.633624 6.20586C2.05556 5.798 3.37186 5.09709 4.49105 4.14898L4.49139 4.14869C5.4276 3.35416 6.12368 2.36008 6.58219 1.57848C6.81284 1.1853 6.98666 0.84021 7.10335 0.592161C7.11725 0.562611 7.13035 0.534419 7.14265 0.507667L7.36785 0.512898C7.37029 0.522586 7.37278 0.532431 7.37532 0.54243C7.44146 0.802534 7.54314 1.16792 7.68639 1.59382C7.97143 2.44129 8.42763 3.54834 9.10897 4.54337L9.10964 4.54434C9.69759 5.39862 10.6161 6.21124 11.3594 6.79611C11.7359 7.09237 12.0772 7.3377 12.3246 7.50919C12.3807 7.54805 12.432 7.58317 12.4779 7.61427L12.4508 7.95062C10.9979 8.46317 9.64059 9.20355 8.43375 10.1432L8.43371 10.1432L8.42728 10.1483C7.58174 10.8294 6.87335 11.7417 6.38331 12.4654C6.13615 12.8304 5.93996 13.1544 5.80516 13.3878Z" fill="#FFD600" stroke="#F9DC4A"/>
</svg>
