<svg width="1437" height="959" viewBox="0 0 1437 959" fill="none" xmlns="http://www.w3.org/2000/svg">
<g clip-path="url(#clip0_1946_132)">
<path d="M0 241.348L21.8896 258.93C43.6193 276.512 87.3984 311.675 131.018 302.085C174.637 292.495 218.416 238.152 261.716 207.783C305.176 177.415 348.316 171.022 391.775 174.218C435.075 177.415 478.854 190.202 522.473 187.005C566.093 183.808 609.872 164.628 653.491 194.997C697.11 225.365 740.89 305.282 784.509 350.035C828.128 394.788 871.907 404.378 915.527 404.378C959.146 404.378 1002.93 394.788 1046.22 369.215C1089.68 343.642 1132.82 302.085 1176.28 270.118C1219.58 238.152 1263.36 215.775 1306.98 217.373C1350.6 218.972 1394.38 244.545 1416.11 257.332L1438 270.118V0H1416.11C1394.38 0 1350.6 0 1306.98 0C1263.36 0 1219.58 0 1176.28 0C1132.82 0 1089.68 0 1046.22 0C1002.93 0 959.146 0 915.527 0C871.907 0 828.128 0 784.509 0C740.89 0 697.11 0 653.491 0C609.872 0 566.093 0 522.473 0C478.854 0 435.075 0 391.775 0C348.316 0 305.176 0 261.716 0C218.416 0 174.637 0 131.018 0C87.3984 0 43.6193 0 21.8896 0H0V241.348Z" fill="#F9F8F5"/>
<path d="M0 308.478L21.8896 332.453C43.6193 356.428 87.3984 404.378 131.018 396.387C174.637 388.395 218.416 324.462 261.716 287.7C305.176 250.938 348.316 241.348 391.775 249.34C435.075 257.332 478.854 282.905 522.473 289.298C566.093 295.692 609.872 282.905 653.491 316.47C697.11 350.035 740.89 429.952 784.509 471.508C828.128 513.065 871.907 516.262 915.527 519.458C959.146 522.655 1002.93 525.852 1046.22 493.885C1089.68 461.918 1132.82 394.788 1176.28 361.223C1219.58 327.658 1263.36 327.658 1306.98 343.642C1350.6 359.625 1394.38 391.592 1416.11 407.575L1438 423.558V266.922L1416.11 254.135C1394.38 241.348 1350.6 215.775 1306.98 214.177C1263.36 212.578 1219.58 234.955 1176.28 266.922C1132.82 298.888 1089.68 340.445 1046.22 366.018C1002.93 391.592 959.146 401.182 915.527 401.182C871.907 401.182 828.128 391.592 784.509 346.838C740.89 302.085 697.11 222.168 653.491 191.8C609.872 161.432 566.093 180.612 522.473 183.808C478.854 187.005 435.075 174.218 391.775 171.022C348.316 167.825 305.176 174.218 261.716 204.587C218.416 234.955 174.637 289.298 131.018 298.888C87.3984 308.478 43.6193 273.315 21.8896 255.733L0 238.152V308.478Z" fill="#FFFAE2"/>
<path d="M0 596.178L21.8896 600.973C43.6193 605.768 87.3984 615.358 131.018 613.76C174.637 612.162 218.416 599.375 261.716 600.973C305.176 602.572 348.316 618.555 391.775 621.752C435.075 624.948 478.854 615.358 522.473 610.563C566.093 605.768 609.872 605.768 653.491 623.35C697.11 640.932 740.89 676.095 784.509 700.07C828.128 724.045 871.907 736.832 915.527 732.037C959.146 727.242 1002.93 704.865 1046.22 684.087C1089.68 663.308 1132.82 644.128 1176.28 639.333C1219.58 634.538 1263.36 644.128 1306.98 648.923C1350.6 653.718 1394.38 653.718 1416.11 653.718H1438V420.362L1416.11 404.378C1394.38 388.395 1350.6 356.428 1306.98 340.445C1263.36 324.462 1219.58 324.462 1176.28 358.027C1132.82 391.592 1089.68 458.722 1046.22 490.688C1002.93 522.655 959.146 519.458 915.527 516.262C871.907 513.065 828.128 509.868 784.509 468.312C740.89 426.755 697.11 346.838 653.491 313.273C609.872 279.708 566.093 292.495 522.473 286.102C478.854 279.708 435.075 254.135 391.775 246.143C348.316 238.152 305.176 247.742 261.716 284.503C218.416 321.265 174.637 385.198 131.018 393.19C87.3984 401.182 43.6193 353.232 21.8896 329.257L0 305.282V596.178Z" fill="#FFF7D0"/>
<path d="M0 768.798L21.8896 787.978C43.6193 807.158 87.3984 845.518 131.018 847.117C174.637 848.715 218.416 813.552 261.716 803.962C305.176 794.372 348.316 810.355 391.775 819.945C435.075 829.535 478.854 832.732 522.473 832.732C566.093 832.732 609.872 829.535 653.491 827.937C697.11 826.338 740.89 826.338 784.509 831.133C828.128 835.928 871.907 845.518 915.527 835.928C959.146 826.338 1002.93 797.568 1046.22 794.372C1089.68 791.175 1132.82 813.552 1176.28 827.937C1219.58 842.322 1263.36 848.715 1306.98 855.108C1350.6 861.502 1394.38 867.895 1416.11 871.092L1438 874.288V650.522H1416.11C1394.38 650.522 1350.6 650.522 1306.98 645.727C1263.36 640.932 1219.58 631.342 1176.28 636.137C1132.82 640.932 1089.68 660.112 1046.22 680.89C1002.93 701.668 959.146 724.045 915.527 728.84C871.907 733.635 828.128 720.848 784.509 696.873C740.89 672.898 697.11 637.735 653.491 620.153C609.872 602.572 566.093 602.572 522.473 607.367C478.854 612.162 435.075 621.752 391.775 618.555C348.316 615.358 305.176 599.375 261.716 597.777C218.416 596.178 174.637 608.965 131.018 610.563C87.3984 612.162 43.6193 602.572 21.8896 597.777L0 592.982V768.798Z" fill="#FFFAE2"/>
<path d="M0 960.598H21.8896C43.6193 960.598 87.3984 960.598 131.018 960.598C174.637 960.598 218.416 960.598 261.716 960.598C305.176 960.598 348.316 960.598 391.775 960.598C435.075 960.598 478.854 960.598 522.473 960.598C566.093 960.598 609.872 960.598 653.491 960.598C697.11 960.598 740.89 960.598 784.509 960.598C828.128 960.598 871.907 960.598 915.527 960.598C959.146 960.598 1002.93 960.598 1046.22 960.598C1089.68 960.598 1132.82 960.598 1176.28 960.598C1219.58 960.598 1263.36 960.598 1306.98 960.598C1350.6 960.598 1394.38 960.598 1416.11 960.598H1438V871.092L1416.11 867.895C1394.38 864.698 1350.6 858.305 1306.98 851.912C1263.36 845.518 1219.58 839.125 1176.28 824.74C1132.82 810.355 1089.68 787.978 1046.22 791.175C1002.93 794.372 959.146 823.142 915.527 832.732C871.907 842.322 828.128 832.732 784.509 827.937C740.89 823.142 697.11 823.142 653.491 824.74C609.872 826.338 566.093 829.535 522.473 829.535C478.854 829.535 435.075 826.338 391.775 816.748C348.316 807.158 305.176 791.175 261.716 800.765C218.416 810.355 174.637 845.518 131.018 843.92C87.3984 842.322 43.6193 803.962 21.8896 784.782L0 765.602V960.598Z" fill="#F9F8F5"/>
</g>
<defs>
<clipPath id="clip0_1946_132">
<rect width="1438" height="959" fill="white"/>
</clipPath>
</defs>
</svg>
