<?xml version="1.0" encoding="UTF-8"?>
<svg id="Layer_2" data-name="Layer 2" xmlns="http://www.w3.org/2000/svg" viewBox="0 0 54.9 33.12">
  <defs>
    <style>
      .cls-1 {
        fill: #231f20;
        stroke-width: 0px;
      }
    </style>
  </defs>
  <g id="Layer_1-2" data-name="Layer 1">
    <g>
      <path class="cls-1" d="M0,.42h10.44l10.14,23.16h-1.52L28.84.42h1.76l-13.74,32.4h-2.58L0,.42Z"/>
      <path class="cls-1" d="M31.2,22.44h1.46c.04,4.84,4.24,9.19,9.68,9.23,6.04.05,9.07-3.62,8.96-6.11-.35-8.09-18.96-3.72-18.96-15.78,0-5.28,3.42-9.78,10.62-9.78,6.12,0,8.88,3.06,8.88,6.24h-1.19c-.2-2.71-3.25-5.05-7.6-5.1-3.58-.04-6.75,1.8-6.75,3.84,0,6.6,18.6,3.54,18.6,15,0,7.56-5.28,13.14-12.3,13.14s-11.4-4.02-11.4-10.68ZM51.84,6.24c0,1.26-.3,2.1-.72,2.76l-1.13-.36c.3-.48.66-1.26.66-2.4h1.19Z"/>
    </g>
  </g>
</svg>