<svg viewBox="0 0 3240 2119.9999999999995" fill="none" xmlns="http://www.w3.org/2000/svg" xmlns:xlink="http://www.w3.org/1999/xlink" overflow="visible" width="3240px" height="2119.9999999999995px"><g id="Master/Scenes/Socializing"><g id="Background"><path id="Bricks" fill-rule="evenodd" clip-rule="evenodd" d="M1948.48 374.001C1948.48 372.344 1947.14 371.001 1945.48 371.001L1800.53 371L1800.35 371.005C1798.78 371.096 1797.53 372.402 1797.53 374L1797.54 374.176C1797.63 375.751 1798.93 377 1800.53 377H1859.2V436.461L1692 436.462L1691.82 436.467C1690.25 436.558 1689 437.864 1689 439.462C1689 441.119 1690.34 442.462 1692 442.462L1772.28 442.461V501.925L1725.96 501.926L1725.78 501.931C1724.21 502.022 1722.96 503.328 1722.96 504.926L1722.96 505.102C1723.05 506.677 1724.36 507.926 1725.96 507.926L1859.2 507.925V567.385L1725.96 567.386L1725.78 567.391C1724.21 567.482 1722.96 568.788 1722.96 570.386C1722.96 572.042 1724.3 573.386 1725.96 573.386L1772.28 573.385L1772.28 635.85L1772.29 636.026C1772.38 637.601 1773.69 638.85 1775.28 638.85H1862.2L1862.38 638.845C1863.95 638.753 1865.2 637.447 1865.2 635.85L1865.2 635.673C1865.11 634.099 1863.8 632.85 1862.2 632.85L1778.28 632.849V573.387L1945.48 573.388L1945.52 573.386L2032.4 573.387L2032.58 573.382C2034.16 573.29 2035.4 571.984 2035.4 570.387L2035.4 570.21C2035.31 568.636 2034 567.387 2032.4 567.387L1865.2 567.386V507.926L2032.4 507.927L2032.58 507.922C2034.16 507.83 2035.4 506.524 2035.4 504.927C2035.4 503.27 2034.06 501.927 2032.4 501.927L1948.48 501.926V442.462L2032.4 442.463L2032.58 442.458C2034.16 442.366 2035.4 441.06 2035.4 439.463L2035.4 439.287C2035.31 437.712 2034 436.463 2032.4 436.463L1865.2 436.462V377L1945.48 377.001L1945.66 376.996C1947.24 376.904 1948.48 375.598 1948.48 374.001ZM1778.28 442.463H1942.48V501.925H1778.28V442.463Z" fill="black" fill-opacity="0.08"/><path id="Bricks " fill-rule="evenodd" clip-rule="evenodd" d="M2940.48 861.288C2940.39 859.713 2939.08 858.464 2937.49 858.464H2767.28L2767.11 858.469C2765.53 858.56 2764.28 859.866 2764.28 861.464L2764.28 925.36C2764 925.815 2763.84 926.352 2763.84 926.925L2763.84 927.102C2763.94 928.677 2765.24 929.925 2766.84 929.925L2851.2 929.926L2851.2 989.385L2766.84 989.385L2766.66 989.391C2765.09 989.482 2763.84 990.788 2763.84 992.385C2763.84 994.042 2765.18 995.385 2766.84 995.385L2955.16 995.386L2955.34 995.381C2956.91 995.29 2958.16 993.984 2958.16 992.386L2958.15 992.21C2958.06 990.635 2956.76 989.386 2955.16 989.386L2857.2 989.386V929.926L3024.4 929.926L3024.58 929.921C3026.16 929.83 3027.4 928.524 3027.4 926.926C3027.4 925.27 3026.06 923.926 3024.4 923.926L2940.48 923.926L2940.49 861.464L2940.48 861.288ZM2770.28 864.463H2934.48V923.925H2770.28V864.463Z" fill="black" fill-opacity="0.08"/><g id="window"><path id="Fill 1" fill-rule="evenodd" clip-rule="evenodd" d="M1991 1204H2776V0H1991V1204Z" fill="#E7EAFD"/><path id="Fill 2" fill-rule="evenodd" clip-rule="evenodd" d="M2034 584H2365V49H2034V584Z" fill="white"/><path id="Fill 3" fill-rule="evenodd" clip-rule="evenodd" d="M2402 584H2733V49H2402V584Z" fill="white"/><path id="Fill 4" fill-rule="evenodd" clip-rule="evenodd" d="M2034 1156H2365V621H2034V1156Z" fill="white"/><path id="Fill 5" fill-rule="evenodd" clip-rule="evenodd" d="M2402 1156H2733V621H2402V1156Z" fill="white"/><path id="Fill 6" fill-rule="evenodd" clip-rule="evenodd" d="M1991 1722H2177V0H1991V1722Z" fill="#C7D2F2"/><path id="Fill 7" fill-rule="evenodd" clip-rule="evenodd" d="M2140.54 268.126L2140.01 454.247L2139.01 826.5L2140 1198.75L2140.53 1384.88L2142 1571L2143.47 1384.88L2143.99 1198.75L2144.99 826.5L2143.99 454.247L2143.46 268.126L2142 82L2140.54 268.126Z" fill="white"/><path id="Fill 8" fill-rule="evenodd" clip-rule="evenodd" d="M2054.54 291.249L2053.7 457.503L2053 790L2053.69 1122.5L2054.53 1288.75L2056 1455L2057.47 1288.75L2058.31 1122.5L2059 790L2058.3 457.503L2057.46 291.249L2056 125L2054.54 291.249Z" fill="white"/><path id="Fill 9" fill-rule="evenodd" clip-rule="evenodd" d="M2097.54 359.622L2097.01 554.25L2096.01 943.5L2097 1332.75L2097.53 1527.38L2099 1722L2100.47 1527.38L2100.99 1332.75L2101.99 943.5L2100.99 554.25L2100.46 359.622L2099 165L2097.54 359.622Z" fill="white"/><path id="Fill 10" fill-rule="evenodd" clip-rule="evenodd" d="M2023.54 295.747L2023.01 499.5L2022 907L2023 1314.5L2023.53 1518.25L2025 1722L2026.47 1518.25L2026.99 1314.5L2028 907L2026.99 499.5L2026.46 295.747L2025 92L2023.54 295.747Z" fill="white"/><path id="Fill 11" fill-rule="evenodd" clip-rule="evenodd" d="M2590 1722H2776V0H2590V1722Z" fill="#C7D2F2"/><path id="Fill 12" fill-rule="evenodd" clip-rule="evenodd" d="M2623.54 268.126L2623.01 454.247L2622.01 826.5L2623.01 1198.75L2623.53 1384.88L2625 1571L2626.47 1384.88L2627 1198.75L2627.99 826.5L2626.99 454.247L2626.46 268.126L2625 82L2623.54 268.126Z" fill="white"/><path id="Fill 13" fill-rule="evenodd" clip-rule="evenodd" d="M2709.54 291.249L2708.71 457.503L2708 790L2708.7 1122.5L2709.54 1288.75L2711 1455L2712.47 1288.75L2713.31 1122.5L2714 790L2713.3 457.503L2712.46 291.249L2711 125L2709.54 291.249Z" fill="white"/><path id="Fill 14" fill-rule="evenodd" clip-rule="evenodd" d="M2666.54 359.622L2666.01 554.25L2665.01 943.5L2666.01 1332.75L2666.53 1527.38L2668 1722L2669.47 1527.38L2670 1332.75L2670.99 943.5L2669.99 554.25L2669.46 359.622L2668 165L2666.54 359.622Z" fill="white"/><path id="Fill 15" fill-rule="evenodd" clip-rule="evenodd" d="M2740.54 295.747L2740.01 499.5L2739.01 907L2740.01 1314.5L2740.53 1518.25L2742.01 1722L2743.47 1518.25L2744 1314.5L2744.99 907L2743.99 499.5L2743.46 295.747L2742.01 92L2740.54 295.747Z" fill="white"/></g><g id="Group 3"><path id="Fill 1_2" fill-rule="evenodd" clip-rule="evenodd" d="M1024.46 401.596C1024.46 485.32 957.42 553.192 874.724 553.192C792.036 553.192 725 485.32 725 401.596C725 317.872 792.036 250 874.724 250C957.42 250 1024.46 317.872 1024.46 401.596" fill="#C7D2F2"/><path id="Fill 3_2" fill-rule="evenodd" clip-rule="evenodd" d="M1008.22 401.596C1008.22 476.24 948.454 536.752 874.726 536.752C801.002 536.752 741.238 476.24 741.238 401.596C741.238 326.952 801.002 266.44 874.726 266.44C948.454 266.44 1008.22 326.952 1008.22 401.596" fill="#F9FAFA"/><path id="Fill 5_2" fill-rule="evenodd" clip-rule="evenodd" d="M885.905 401.596C885.905 407.844 880.901 412.912 874.725 412.912C868.553 412.912 863.549 407.844 863.549 401.596C863.549 395.344 868.553 390.276 874.725 390.276C880.901 390.276 885.905 395.344 885.905 401.596" fill="#C7D2F2"/><path id="Fill 7_2" fill-rule="evenodd" clip-rule="evenodd" d="M872.193 296.102H877.565V271.378H872.193V296.102Z" fill="#C7D2F2"/><path id="Fill 9_2" fill-rule="evenodd" clip-rule="evenodd" d="M872.193 531.958H877.565V507.234H872.193V531.958Z" fill="#C7D2F2"/><path id="Fill 10_2" fill-rule="evenodd" clip-rule="evenodd" d="M979.146 404.386H1003.56V398.946H979.146V404.386Z" fill="#C7D2F2"/><path id="Fill 11_2" fill-rule="evenodd" clip-rule="evenodd" d="M746.189 404.386H770.609V398.946H746.189V404.386Z" fill="#C7D2F2"/><path id="Fill 12_2" fill-rule="evenodd" clip-rule="evenodd" d="M871.926 397.68L874.93 311.968L877.938 397.68H871.926Z" fill="#C7D2F2"/><path id="Fill 13_2" fill-rule="evenodd" clip-rule="evenodd" d="M871.452 403.125L813.768 340.317L875.704 398.825L871.452 403.125Z" fill="#C7D2F2"/></g><path id="Bricks_2" fill-rule="evenodd" clip-rule="evenodd" d="M3097.48 205.001C3097.48 203.344 3096.14 202.001 3094.48 202.001L2949.53 202L2949.35 202.005C2947.78 202.096 2946.53 203.402 2946.53 205L2946.53 205.176C2946.63 206.751 2947.93 208 2949.53 208H3008.2V267.461L2923.84 267.462L2923.66 267.467C2922.09 267.558 2920.84 268.864 2920.84 270.462C2920.84 271.036 2921 271.572 2921.28 272.028V334.36C2921 334.816 2920.84 335.352 2920.84 335.926L2920.84 336.102C2920.94 337.677 2922.24 338.926 2923.84 338.926L3008.2 338.926L3008.2 398.385L2923.84 398.386L2923.66 398.391C2922.09 398.482 2920.84 399.788 2920.84 401.386C2920.84 403.042 2922.18 404.386 2923.84 404.386L3011.17 404.385L3011.2 404.387H3112.16L3112.34 404.382C3113.91 404.29 3115.16 402.984 3115.16 401.387L3115.15 401.21C3115.06 399.636 3113.76 398.387 3112.16 398.387L3014.2 398.386V338.926L3181.4 338.927L3181.58 338.922C3183.16 338.83 3184.4 337.524 3184.4 335.927C3184.4 334.27 3183.06 332.927 3181.4 332.927L3097.48 332.926V273.462L3141.65 273.463L3141.83 273.458C3143.4 273.366 3144.65 272.06 3144.65 270.463L3144.65 270.287C3144.55 268.712 3143.25 267.463 3141.65 267.463L3014.2 267.462V208L3094.48 208.001L3094.66 207.996C3096.24 207.904 3097.48 206.598 3097.48 205.001ZM2927.28 273.463H3091.48V332.925H2927.28V273.463Z" fill="black" fill-opacity="0.08"/><g id="Chair" transform="matrix(-1 0 0 1 2624 1281) scale(0.8571428571428571 1)"><g id="Chair/Tall Chair 2"><g id="Group"><path id="Fill 4" fill-rule="evenodd" clip-rule="evenodd" d="M472.778 418.881C472.347 417.021 470.684 415.63 468.692 415.622H468.658L306.34 415.001L306.326 415C304.123 414.99 302.128 416.502 301.615 418.738L224.07 796.631C223.735 798.096 224.639 799.564 226.105 799.918C227.583 800.274 229.07 799.368 229.428 797.892L310.164 424.683L465.326 424.088L545.57 797.892C545.923 799.357 547.394 800.27 548.867 799.929C550.348 799.587 551.271 798.111 550.929 796.631L472.778 418.881Z" fill="#090E2B"/><path id="Fill 4 Copy" fill-rule="evenodd" clip-rule="evenodd" d="M415.778 418.881C415.347 417.021 413.684 415.63 411.692 415.622H411.658L249.34 415.001L249.326 415C247.123 414.99 245.128 416.502 244.615 418.738L167.07 796.631C166.735 798.096 167.639 799.564 169.105 799.918C170.583 800.274 172.07 799.368 172.428 797.892L253.164 424.683L408.326 424.088L488.57 797.892C488.923 799.357 490.394 800.27 491.867 799.929C493.348 799.587 494.271 798.111 493.929 796.631L415.778 418.881Z" fill="#090E2B"/><path id="Fill 1" fill-rule="evenodd" clip-rule="evenodd" d="M208.192 210.22C216.309 250.419 262.03 375.924 286.698 390.043C311.365 404.16 455.424 401.41 472.322 402.82C489.221 404.231 507.528 414.105 504.711 432.441C501.895 450.778 494.854 445.135 445.566 445.135C396.278 445.135 280.806 445.955 280.806 445.955C280.806 445.955 221.008 449.665 196.395 389.787C173.853 334.946 153.909 233.748 151.092 215.41C148.277 197.073 150.312 174.585 164.264 170.02C174.828 166.565 200.076 170.02 208.192 210.22Z" fill="#FF0057"/></g></g></g><g id="Medium Plants" transform="translate(2507 1281) scale(1 1)"><g id="Medium Plants/Plant 2"><g id="Group"><path id="Stroke 1" fill-rule="evenodd" clip-rule="evenodd" d="M406.803 497.181C406.803 497.181 406.967 439.989 384.935 394.657C358.751 340.781 261.687 273.421 204.251 290.605C178.783 298.225 225.803 365.529 294.291 435.445C323.127 464.885 394.071 509.649 406.803 497.181Z" fill="#009BA0"/><path id="Stroke 3" fill-rule="evenodd" clip-rule="evenodd" d="M421.713 357.689C421.713 357.689 439.453 330.365 441.961 268.729C443.857 222.017 423.569 186.181 413.057 169.493C401.249 150.745 378.033 119.737 364.125 146.317C350.213 172.905 342.689 234.117 355.837 275.813C368.985 317.505 389.709 347.309 421.713 357.689Z" fill="#009BA0"/><path id="Stroke 5" fill-rule="evenodd" clip-rule="evenodd" d="M358.753 567.896C358.753 567.896 325.157 601.052 253.773 591.7C190.125 583.36 150.489 551.244 151.005 536.364C151.521 521.484 226.893 488.564 288.465 512.016C350.037 535.472 358.753 567.896 358.753 567.896Z" fill="#009BA0"/><path id="Stroke 7" fill-rule="evenodd" clip-rule="evenodd" d="M494.288 509.052C494.288 509.052 467.392 475.288 468.116 395.232C468.836 315.176 510.168 219.824 523.62 218.644C537.08 217.468 557.756 264.712 552.588 369.136C549.86 424.252 535.212 481.204 494.288 509.052Z" fill="#009BA0"/><path id="Stroke 9" fill-rule="evenodd" clip-rule="evenodd" d="M541.948 550.732C541.948 550.732 584.816 565.308 621.388 544.912C673.396 515.904 697.2 474.356 698.268 448.916C699.332 423.476 644.836 441.98 619.304 455.936C593.58 469.996 537.932 522.18 541.948 550.732Z" fill="#009BA0"/><path id="Fill 11" fill-rule="evenodd" clip-rule="evenodd" d="M519.893 284.247C517.685 350.139 512.885 416.055 501.533 481.067C495.689 513.587 487.417 545.551 478.241 577.227C469.061 608.651 458.037 639.979 458.649 673.079C458.737 675.627 454.569 675.767 454.649 673.075C454.149 639.679 465.429 607.751 474.817 576.223C484.101 544.683 492.493 512.811 498.445 480.503C510.041 415.767 515.129 349.875 517.617 284.191C517.609 283.671 517.941 277.271 518.349 277.131C520.349 276.427 519.941 283.287 519.893 284.247" fill="black"/><path id="Fill 13" fill-rule="evenodd" clip-rule="evenodd" d="M392.035 200.806C403.379 259.058 415.027 318.022 427.575 376.062C445.439 473.958 451.863 573.674 452.179 673.074C452.203 675.534 448.151 675.77 448.179 673.074C447.863 573.934 441.455 474.43 423.643 376.814C411.311 318.79 400.023 259.638 389.667 201.25C389.519 200.534 388.231 191.906 389.563 192.214C390.159 192.35 391.903 200.022 392.035 200.806" fill="black"/><path id="Fill 15" fill-rule="evenodd" clip-rule="evenodd" d="M262.549 326.485C390.673 426.141 438.101 514.629 444.213 677.541C444.237 680.069 440.141 680.249 440.213 677.517C437.597 575.465 410.913 471.225 336.317 397.625C313.093 372.737 283.633 346.377 256.697 325.581C255.749 324.949 253.161 322.405 255.133 322.837C256.273 323.081 261.985 326.037 262.549 326.485" fill="black"/><path id="Fill 17" fill-rule="evenodd" clip-rule="evenodd" d="M195.421 537.618C245.741 533.874 297.157 540.266 344.261 558.79C392.969 577.422 423.685 626.006 431.613 676.074C432.045 678.562 428.153 679.366 427.677 676.782C412.425 589.798 353.069 554.202 270.493 542.762C245.709 539.158 218.237 537.422 193.205 539.158C192.113 539.294 194.193 537.698 195.421 537.618" fill="black"/><path id="Fill 19" fill-rule="evenodd" clip-rule="evenodd" d="M650.693 473.779C572.661 524.195 480.633 583.239 466.513 682.871C466.189 685.419 462.041 684.839 462.565 682.219C472.701 607.771 529.989 552.471 588.733 511.371C608.481 497.415 628.617 484.071 649.093 471.211C649.885 470.711 657.145 466.643 657.121 468.095C657.113 468.855 651.561 473.243 650.693 473.779" fill="black"/><path id="Stroke 21" fill-rule="evenodd" clip-rule="evenodd" d="M484.765 799.567H410.345C387.853 799.567 369.617 773.331 369.617 750.839V635.695H525.493V750.839C525.493 773.331 507.257 799.567 484.765 799.567Z" fill="#FFB201"/></g></g></g><g id="Medium Plants" transform="translate(111 537) scale(1 1)"><g id="Medium Plants/Plant 1"><g id="Group"><path id="Fill 1" fill-rule="evenodd" clip-rule="evenodd" d="M356.365 503.474C327.777 445.413 300.03 424.299 291.225 417.517C299.353 433.795 363.551 619.095 372.433 667.614C342.629 608.883 327.262 596.196 321.705 590.482C306.664 575.016 287.838 564.028 277 558.602C281.745 565.191 337.284 631.858 356.927 690.191L372.506 718H450.401C450.401 718 458.529 690.988 471.398 679.057C484.268 667.128 532.765 607.409 540.216 572.138C522.239 592.953 465.071 667.128 454.901 679.057C479.964 608.117 483.727 601.563 505.145 562.223C526.564 522.881 570.969 465.279 573 463.923C549.97 476.133 482.258 518.8 450.147 603.33C436.728 638.654 432.522 661.151 432.522 661.151C432.522 661.151 447.024 590.548 446.346 521.361C445.668 452.175 450.401 297 450.401 297C450.401 297 419.527 351.185 408.086 439.025C403.855 471.509 400.285 604.942 401.639 637.22C401.639 637.22 384.121 559.844 356.365 503.474Z" fill="#009BA0"/><path id="Fill 4" fill-rule="evenodd" clip-rule="evenodd" d="M455.622 800H365.883C352.693 800 342 781.764 342 768.532V679H482V766.029C482 780.583 470.13 800 455.622 800" fill="#FFB201"/></g></g></g><g id="Bubble 1"><path id="Fill 1_3" fill-rule="evenodd" clip-rule="evenodd" d="M1478.12 841.08C1478.12 905.16 1426.16 957.12 1362.04 957.12C1345.88 957.12 1330.52 953.8 1316.56 947.84L1260.96 973.36L1285.4 928.16C1261.24 906.92 1246 875.8 1246 841.08C1246 776.96 1297.96 725 1362.04 725C1426.16 725 1478.12 776.96 1478.12 841.08" fill="#FFB201"/><rect id="Rectangle" x="1296" y="798" width="132" height="12" rx="6" fill="white"/><rect id="Rectangle Copy" x="1296" y="832" width="112" height="12" rx="6" fill="white"/><rect id="Rectangle Copy 2" x="1296" y="866" width="79" height="12" rx="6" fill="white"/></g><g id="Bubble 2"><path id="Fill 4_2" fill-rule="evenodd" clip-rule="evenodd" d="M1868.68 928.121C1868.68 995.257 1923.12 1049.7 1990.3 1049.7C2007.23 1049.7 2023.32 1046.22 2037.95 1039.97L2096.2 1066.71L2070.6 1019.36C2095.91 997.101 2111.88 964.497 2111.88 928.121C2111.88 860.941 2057.43 806.501 1990.3 806.501C1923.12 806.501 1868.68 860.941 1868.68 928.121" fill="#FFB201"/><rect id="Rectangle Copy 3" x="1927" y="888" width="132" height="12" rx="6" fill="white"/><rect id="Rectangle Copy 4" x="1927" y="922" width="117" height="12" rx="6" fill="white"/><rect id="Rectangle Copy 5" x="1927" y="956" width="79" height="12" rx="6" fill="white"/></g><g id="Shelf"><path id="Fill 16" fill-rule="evenodd" clip-rule="evenodd" d="M55 2084H576V1363H55V2084Z" fill="#F0F1FF"/><path id="Fill 17" fill-rule="evenodd" clip-rule="evenodd" d="M30 1363H601V1336H30V1363Z" fill="white"/><path id="Fill 18" fill-rule="evenodd" clip-rule="evenodd" d="M601 1363H781V1336H601V1363Z" fill="#BACCFF"/><path id="Fill 19" fill-rule="evenodd" clip-rule="evenodd" d="M576 2084H752V1363H576V2084Z" fill="#C7D2F2"/><path id="Stroke 20 (Stroke)" fill-rule="evenodd" clip-rule="evenodd" d="M112 1466H525V1702H112V1466ZM118 1472V1696H519V1472H118Z" fill="white"/><path id="Fill 21" fill-rule="evenodd" clip-rule="evenodd" d="M278 1579H358V1533H278V1579Z" fill="white"/><path id="Stroke 23 (Stroke)" fill-rule="evenodd" clip-rule="evenodd" d="M112 1756H525V1992H112V1756ZM118 1762V1986H519V1762H118Z" fill="white"/><path id="Fill 24" fill-rule="evenodd" clip-rule="evenodd" d="M278 1869H358V1823H278V1869Z" fill="white"/></g><g id="Chair" transform="translate(721 1281) scale(0.8571428571428571 1)"><g id="Chair/Tall Chair 2"><g id="Group"><path id="Fill 4" fill-rule="evenodd" clip-rule="evenodd" d="M472.778 418.881C472.347 417.021 470.684 415.63 468.692 415.622H468.658L306.34 415.001L306.326 415C304.123 414.99 302.128 416.502 301.615 418.738L224.07 796.631C223.735 798.096 224.639 799.564 226.105 799.918C227.583 800.274 229.07 799.368 229.428 797.892L310.164 424.683L465.326 424.088L545.57 797.892C545.923 799.357 547.394 800.27 548.867 799.929C550.348 799.587 551.271 798.111 550.929 796.631L472.778 418.881Z" fill="#090E2B"/><path id="Fill 4 Copy" fill-rule="evenodd" clip-rule="evenodd" d="M415.778 418.881C415.347 417.021 413.684 415.63 411.692 415.622H411.658L249.34 415.001L249.326 415C247.123 414.99 245.128 416.502 244.615 418.738L167.07 796.631C166.735 798.096 167.639 799.564 169.105 799.918C170.583 800.274 172.07 799.368 172.428 797.892L253.164 424.683L408.326 424.088L488.57 797.892C488.923 799.357 490.394 800.27 491.867 799.929C493.348 799.587 494.271 798.111 493.929 796.631L415.778 418.881Z" fill="#090E2B"/><path id="Fill 1" fill-rule="evenodd" clip-rule="evenodd" d="M208.192 210.22C216.309 250.419 262.03 375.924 286.698 390.043C311.365 404.16 455.424 401.41 472.322 402.82C489.221 404.231 507.528 414.105 504.711 432.441C501.895 450.778 494.854 445.135 445.566 445.135C396.278 445.135 280.806 445.955 280.806 445.955C280.806 445.955 221.008 449.665 196.395 389.787C173.853 334.946 153.909 233.748 151.092 215.41C148.277 197.073 150.312 174.585 164.264 170.02C174.828 166.565 200.076 170.02 208.192 210.22Z" fill="#FF0057"/></g></g></g><path id="Floor" d="M3233.5 2081C3235.43 2081 3237 2082.57 3237 2084.5C3237 2086.37 3235.54 2087.9 3233.69 2087.99L3233.5 2088H19.5C17.567 2088 16 2086.43 16 2084.5C16 2082.63 17.4643 2081.1 19.308 2081.01L19.5 2081H3233.5Z" fill="#090E2B"/></g><g id="Master/Character/Sitting [colors]" transform="translate(502 589) scale(1 1)"><g id="Master/Character/Sitting [colors]"><g id="Lower Body/Sitting" transform="translate(179 940) scale(1 1)"><g id="Lower Body/Sitting/On Chair 3"><path id="Fill 3" fill-rule="evenodd" clip-rule="evenodd" d="M410.615 399.5C410.615 399.5 400.358 471.95 396.172 502.906C391.95 534.126 467.049 503.737 467.049 503.737C467.049 503.737 453.51 484.443 453.305 479.158C453.101 473.871 476.219 412 476.219 412L410.615 399.5Z" fill="#ff8282"/><path id="Fill 5" fill-rule="evenodd" clip-rule="evenodd" d="M561.036 4.57764e-05C597.898 16.8478 635.154 59.3885 602.589 139.129C570.025 218.869 493.394 411.873 481.35 420.555C469.306 429.239 405.785 412 405.785 412C405.785 412 412.733 330.945 426.535 251.243C436.642 192.88 457.953 150.326 457.953 150.326C457.953 150.326 286.541 174.784 243.983 146.076C188.125 108.397 229.481 6.86059 261.586 -5.7106C302.859 -21.8713 490.855 -32.0758 561.036 4.57764e-05Z" fill="#F67A49"/><path id="Fill 17" fill-rule="evenodd" clip-rule="evenodd" d="M559.105 537.55C553.719 520.869 514.662 509.853 486.46 501.514C476.967 498.706 463.703 484.835 457.546 485.001C448.582 485.245 457.367 503.898 427.363 502.274C419.419 501.845 418.852 493.484 401.592 491.581C398.787 491.273 394.499 490.728 390.796 497.394C388.732 501.111 380.282 534.664 388.578 548.345C446.664 549.846 506.413 548.363 558.02 547.882C563.06 547.834 560.482 541.819 559.105 537.55" fill="#FF0057"/><path id="Fill 1" fill-rule="evenodd" clip-rule="evenodd" d="M654.971 412C654.971 412 665.531 466.51 672.596 475.378C679.663 484.243 716.329 494.221 717.975 499.698C719.619 505.175 639.821 518 639.821 518L591 416.698L654.971 412Z" fill="#ff8282"/><path id="Fill 10" fill-rule="evenodd" clip-rule="evenodd" d="M790.105 534.55C784.719 517.87 745.662 506.853 717.46 498.513C707.967 495.706 694.703 481.834 688.546 482.001C679.582 482.244 688.367 500.898 658.363 499.274C650.42 498.845 649.853 490.483 632.592 488.581C629.787 488.272 625.499 487.728 621.796 494.393C619.732 498.11 611.282 531.663 619.578 545.346C677.664 546.846 737.413 545.362 789.02 544.881C794.06 544.833 791.482 538.818 790.105 534.55" fill="#FF0057"/><path id="Fill 15" fill-rule="evenodd" clip-rule="evenodd" d="M722.705 510.43C726.392 503.004 728.005 501.713 726.433 500.544C722.673 497.748 703.571 506.385 702.07 511.523C700.945 515.374 713.664 504.229 723.821 502.566C719.659 506.366 715.779 518.02 719.874 515.696C739.827 504.382 742.974 507.006 742.999 506.586C743.117 504.585 735.566 502.967 722.705 510.43" fill="#FFB201"/><path id="Fill 7" fill-rule="evenodd" clip-rule="evenodd" d="M180.128 77C192.092 138.955 247.292 161.212 295.191 159.362C368.357 156.536 442.941 124.042 468.153 113.183C465.932 129.164 477.806 220.025 497.63 262.074C517.453 304.124 582.01 430.62 582.01 430.62C582.01 430.62 654.852 431.05 657.967 413.369C660.016 401.738 591.632 76.8495 569.01 20.5962C556.02 -11.7082 513.977 -25.6487 427.502 -33C340.648 -40.3834 214.032 -26.7716 214.032 -26.7716C214.032 -26.7716 168.163 15.0448 180.128 77Z" fill="#FFB201"/><path id="Fill 22" fill-rule="evenodd" clip-rule="evenodd" d="M491.705 514.43C495.392 507.005 497.005 505.714 495.432 504.544C491.672 501.749 472.571 510.385 471.07 515.522C469.945 519.373 482.664 508.228 492.821 506.566C488.659 510.367 484.778 522.019 488.874 519.697C508.827 508.381 511.974 511.006 511.999 510.585C512.117 508.585 504.566 506.966 491.705 514.43" fill="#FFB201"/><path id="Fill 19" fill-rule="evenodd" clip-rule="evenodd" d="M546.831 554.392L407.016 556.858C397.662 557.232 383.67 554.015 382.317 546.244C381.306 540.438 383.554 527.796 384.02 526.955C387.277 521.095 415.032 526.039 423.117 545.828C474.131 549.65 561.008 545.913 561.008 545.913C561.008 545.913 562.312 553.594 546.831 554.392" fill="#090E2B"/><path id="Fill 12" fill-rule="evenodd" clip-rule="evenodd" d="M777.721 550.785L637.906 553.251C628.553 553.625 614.56 550.409 613.207 542.638C612.197 536.832 614.444 524.19 614.911 523.349C618.167 517.489 645.922 522.433 654.007 542.222C705.021 546.044 791.899 542.307 791.899 542.307C791.899 542.307 793.202 549.988 777.721 550.785" fill="#090E2B"/></g></g><g id="Upper Body/Sitting" transform="translate(243 170) scale(1 1.0010526315789474)"><g id="Upper Body/Sitting/Reading Book 2"><path id="Fill 1" fill-rule="evenodd" clip-rule="evenodd" d="M459 586.835C459 586.835 477.747 576.826 489.004 569.662C514.007 553.749 524.308 546.821 526.267 533.245C529.139 513.38 537.723 513.255 544.722 513.255C548.822 513.255 558.433 509.137 561.715 515.821C561.558 521.017 562.966 534.246 560.668 536.609C557.117 540.26 526.505 581.162 500.906 610.395C484.809 628.777 468.591 639 468.591 639L459 586.835Z" fill="#ff8282"/><path id="Fill 3" fill-rule="evenodd" clip-rule="evenodd" d="M366.211 542.747C371.032 593.151 385.462 610.403 387.46 618.356C387.46 618.356 449.072 584.537 475.967 572.798C486.738 611.411 492.253 675.202 493 678.947C486.274 687.188 369.516 724.697 356.83 721.846C352.718 720.921 330.896 722.637 324.729 691.158C311.553 623.897 315.774 503.983 333.203 480C333.203 480 361.391 492.343 366.211 542.747Z" fill="#3615F6"/><path id="Fill 5" fill-rule="evenodd" clip-rule="evenodd" d="M510.97 377.282L454 521.593L540.179 528L595 392.763L565.218 348L553.789 384.438L510.97 377.282Z" fill="#090E2B"/><path id="Fill 8" fill-rule="evenodd" clip-rule="evenodd" d="M208.79 448.407C205.996 461.317 156 471.803 156 471.803C156 471.803 252.987 531.328 269.715 527.854C300.561 521.448 315.341 490.274 321 475.481C304.183 471.025 285.38 464.806 274.396 459.875C263.412 454.944 268.562 418.737 267.89 400.337C245.136 395.831 213.128 387 213.128 387C213.128 387 211.584 435.496 208.79 448.407Z" fill="#ff8282"/><path id="Fill 10" fill-rule="evenodd" clip-rule="evenodd" d="M181.313 464C181.313 464 237.839 505.314 266.697 505.992C280.837 506.324 296.733 477.514 299.529 467.33C314.882 472.441 329.686 478.287 337.082 483.047C342.982 507.574 348.969 563.684 347.868 586.969C346.814 609.287 332.147 652.367 333.15 671.17C333.831 683.959 334.198 700.833 337.78 735.307C338.481 742.053 327.187 767.63 225 767.63C147.189 767.63 124.667 813.744 102.066 803.521C100.041 784.647 145.485 719.853 146.653 701.681C147.82 683.508 140.963 650.47 138.506 625.831C136.051 601.194 117.207 498.743 121.295 487.954C125.383 477.166 181.313 464 181.313 464Z" fill="#3615F6"/><path id="Fill 12" fill-rule="evenodd" clip-rule="evenodd" d="M175.618 899.32C181.882 905.36 184.925 908.522 187.253 914.186C190.483 922.042 191.504 931.883 192.387 934.727C195.669 945.306 184.841 938.985 182.011 931.782C176.441 944.988 185.33 971.384 176.441 968.827C150 961.219 152.726 941.884 150.455 910.933C149.659 900.08 114.564 866.761 109.173 856.524C106.309 851.082 139.842 817.789 145.596 825.024C151.348 832.259 164.153 888.261 175.618 899.32Z" fill="#ff8282"/><path id="Fill 15" fill-rule="evenodd" clip-rule="evenodd" d="M140.305 476C140.305 476 99.4531 487.046 88.5149 532.694C77.5767 578.341 25.9818 673.819 20.595 707.48C12.0348 760.963 24.5346 814.963 59.8566 907C73.8508 896.87 145.806 838.849 149.973 823.092C133.448 792.882 115.756 738.588 117.974 712.33C120.191 686.071 163.118 632.608 165.604 600.99C169.19 555.359 140.305 476 140.305 476Z" fill="#3615F6"/><path id="Fill 17" fill-rule="evenodd" clip-rule="evenodd" d="M538.848 508.083C546.835 522.301 537.403 521.61 535.367 529.294C531.372 544.354 561.348 532.698 561.348 532.698C561.348 532.698 562.367 521.611 561.857 517.213C560.861 508.618 557.742 498.267 549.454 493.233C546.362 491.355 534.999 501.231 538.848 508.083" fill="#ff8282"/><path id="Fill 19" fill-rule="evenodd" clip-rule="evenodd" d="M373.721 642.745C373.322 643.718 370.094 651.113 369.01 652.99C368.651 653.612 377.84 626.346 386.831 618.082C387.234 617.714 386.822 618.671 386.559 619.173C382.602 626.719 377.072 634.566 373.721 642.745Z" fill="#090E2B"/><path id="Fill 21" fill-rule="evenodd" clip-rule="evenodd" d="M333.7 653.075C335.444 640.668 339.084 628.614 341.483 616.399C345.26 596.044 344.134 574.374 339 555.113C338.937 554.888 338.261 552.059 338.451 552.002C338.641 551.945 339.698 554.658 339.762 554.91C351.841 595.672 344.067 614.726 335.865 653.421C334.061 666.802 333.883 683.712 334.783 700.528C335.034 705.222 335.107 710.35 335.557 712.754C335.697 713.502 335.727 713.881 335.656 713.979C335.473 714.232 334.661 712.233 333.7 705.459C331.462 689.686 331.405 668.458 333.7 653.075Z" fill="#090E2B"/><path id="Fill 23" fill-rule="evenodd" clip-rule="evenodd" d="M166.035 557.922C172.615 592.82 162.18 628.247 142.079 656.934C141.873 657.237 142.11 656.413 142.325 656.063C157.693 630.152 167.002 601.607 165.512 571.031C165.303 566.722 164.886 560.52 164.404 556.258C164.28 555.369 165.899 556.989 166.035 557.922" fill="#090E2B"/><path id="Fill 25" fill-rule="evenodd" clip-rule="evenodd" d="M138.871 800.493C139.917 803.568 134.376 792.007 131.079 783.18C128.154 773.278 123.615 761.392 123 752C128.857 767.664 133.46 784.588 138.871 800.493Z" fill="#090E2B"/><path id="Fill 27" fill-rule="evenodd" clip-rule="evenodd" d="M534.71 536.51C532.455 529.677 535.929 525.431 540.109 521.812C540.587 521.4 541.506 520.483 541.947 520.025C542.126 519.839 541.813 520.735 541.602 521.126C539.867 524.325 536.277 526.327 535.234 531.94C535.074 532.795 535.439 538.718 534.71 536.51" fill="#090E2B"/><path id="Fill 29" fill-rule="evenodd" clip-rule="evenodd" d="M543.342 354L530 380.508L587.323 390L588 389.103L543.342 354Z" fill="#FFB201"/></g></g><g id="Head" transform="translate(341 346) scale(1 1)"><g id="Head/Long Hair Dark"><path id="hair" fill-rule="evenodd" clip-rule="evenodd" d="M202.96 77.8622C181.85 79.5182 184.201 108.083 184.201 108.083L160.791 233.742L164.171 235.861C164.171 235.861 157.941 270.761 161.916 281.312C164.689 288.675 176.166 298.498 184.156 300.446C187.906 301.36 191.248 298.459 193.299 294.225C205.503 269.035 175.322 218.202 216.652 184.725C225.03 165.651 231.832 150.83 233.996 147.83C241.022 138.089 269.219 72.6632 202.96 77.8622" fill="#090E2B"/><path id="face" fill-rule="evenodd" clip-rule="evenodd" d="M231.595 169.854C231.717 186.9 240.727 192.188 233.169 222.16C227.297 245.445 204.337 266.222 197.588 266.222C160.591 266.222 132.306 237.766 116.041 222.16C99.7771 206.554 83.9321 173.964 94.9881 136.896C106.042 99.8283 189.094 48.6463 217.223 106.107C225.869 123.768 231.336 133.563 231.595 169.854Z" fill="#ff8282"/><path id="hair_2" fill-rule="evenodd" clip-rule="evenodd" d="M130.088 181.782C128.9 173.987 126.062 165.705 126.54 162.536C137.808 137.905 220.052 153.862 221.618 97.6449C222.223 75.9519 202.498 58.0299 185.931 54.0029C144.836 44.0129 94.0475 71.7789 71.6945 128.653C57.5485 164.645 86.5035 215.853 60.7515 217.008C-17.4695 220.517 -34.6575 251.486 -39.8695 280.62C-46.4775 317.555 -23.3965 354.421 10.5785 340.636C59.7395 379.877 115.696 300.615 120.223 241.305C123 204.916 95.7905 197.483 100.679 184.511C105.053 175.351 110.514 161.82 115.925 179.974C116.697 182.567 115.729 189.835 118.073 193.201C121.485 198.102 126.864 197.637 128.625 195.291C130.94 192.207 130.899 187.108 130.088 181.782Z" fill="#090E2B"/><path id="ear" fill-rule="evenodd" clip-rule="evenodd" d="M115.313 181.264C114.883 173.3 111.137 163.343 100.53 162.562C94.8072 162.14 82.1602 166.579 87.7552 189.184C91.7972 205.508 108.376 210.145 113.018 209.26C121.327 207.677 115.947 193.049 115.313 181.264" fill="#ff8282"/><path id="Fill 11" fill-rule="evenodd" clip-rule="evenodd" d="M160.046 257.312C155.325 256.324 150.368 253.273 146.542 250.168C143.423 247.637 138.642 242.711 136.488 240.103C135.462 238.861 137.141 239.973 138.77 241.136C140.929 242.677 148.163 248.846 155.415 252.959C156.316 253.47 161.281 256.317 161.24 256.832C161.212 257.176 160.748 257.459 160.046 257.312" fill="#090E2B"/><path id="Fill 13" fill-rule="evenodd" clip-rule="evenodd" d="M97.6772 177.008C95.0942 177.191 95.6262 181.256 98.1642 180.777C101.588 180.131 104.414 181.805 106.42 184.354C103.983 184.647 101.342 187.222 99.6492 188.594C98.4302 189.716 100.297 191.549 101.398 190.318C102.41 189.22 103.595 188.114 104.817 187.249C105.636 186.705 106.519 186.111 107.422 186.166C107.525 186.194 107.62 186.248 107.715 186.311C108.651 188.003 109.286 189.878 109.569 191.654C114.825 195.795 108.33 174.422 97.6772 177.008" fill="#090E2B"/></g></g><g id="Expressions" transform="translate(462 479) scale(1 1)"><g id="Expressions/Smile"><g id="eye1"><path id="Fill 1" fill-rule="evenodd" clip-rule="evenodd" d="M21.0758 18.1794C22.852 10.1965 46.2248 7.39836 56.5098 13.5794C60.0658 15.6924 66.6698 21.4974 60.8228 24.6574C59.2788 25.3294 57.7788 24.6404 56.5098 23.8214C42.4918 14.0794 19.8377 23.7442 21.0758 18.1794Z" fill="#090E2B"/><path id="Fill 6" fill-rule="evenodd" clip-rule="evenodd" d="M40.0382 32.611C34.7502 34.111 30.2172 38.361 29.7962 41.883C29.5412 44.011 37.8912 49.12 45.9442 49.517C56.5382 50.038 61.8782 44.299 61.8592 42.465C61.1462 36.915 54.7552 28.437 40.0382 32.611Z" fill="white"/><path id="Fill 8" fill-rule="evenodd" clip-rule="evenodd" d="M56.4251 35.7687C48.2821 29.6147 35.6701 33.6247 29.7961 41.8827C29.4591 42.3107 29.5561 41.2337 29.7901 40.7427C32.6241 34.7957 37.7371 31.9887 43.6651 30.7647C47.2321 30.0277 50.5581 29.9677 54.0371 31.5257C55.3821 32.1267 57.7581 33.9587 59.5941 36.0307C61.0261 37.6457 62.2321 40.4147 60.5751 39.4357C59.2781 38.6687 57.5051 36.5857 56.4251 35.7687Z" fill="#090E2B"/><path id="Fill 10" fill-rule="evenodd" clip-rule="evenodd" d="M45.8406 46.276C50.3676 46.276 54.0376 42.928 54.0376 38.797C54.0376 34.667 50.3676 31.318 45.8406 31.318C41.3136 31.318 37.6436 34.667 37.6436 38.797C37.6436 42.928 41.3136 46.276 45.8406 46.276Z" fill="#090E2B"/></g><g id="eye2"><path id="Fill 4" fill-rule="evenodd" clip-rule="evenodd" d="M104.459 16.8614C107.813 18.3492 112.278 23.2873 108.561 23.2873C104.844 23.2873 96.7936 22.2329 91.3966 24.4599C89.5116 24.9419 88.0811 25.8643 86.1881 26.0893C81.8801 26.9283 79.5395 21.7686 82.5855 18.6492C86.0265 15.1253 97.6434 13.4544 104.459 16.8614Z" fill="#090E2B"/><path id="Fill 12" fill-rule="evenodd" clip-rule="evenodd" d="M100.659 49.2345C106.03 47.9855 110.047 43.1155 109.593 39.4765C108.707 34.6545 99.422 31.5755 94.221 34.2085C89.07 36.8155 85.847 42.6405 86.263 44.9405C86.864 46.5325 95.17 50.5115 100.659 49.2345Z" fill="white"/><path id="Fill 14" fill-rule="evenodd" clip-rule="evenodd" d="M96.2146 46.6062C99.7526 46.6062 102.621 43.8522 102.621 40.4562C102.621 37.0592 100.6 33.8492 96.2146 34.3062C92.6956 34.6722 89.8076 37.0592 89.8076 40.4562C89.8076 43.8522 92.6766 46.6062 96.2146 46.6062Z" fill="#090E2B"/><path id="Fill 22" fill-rule="evenodd" clip-rule="evenodd" d="M86.4543 41.6378C88.4833 34.0638 97.6443 30.1688 104.889 33.7548C105.909 34.2868 107.565 35.4808 108.805 36.9228C109.946 38.2528 109.797 38.9498 109.331 38.8118C108.559 38.5818 106.926 37.1168 105.599 36.4868C98.8893 33.3038 91.9083 35.0898 86.7973 42.5588C86.5463 42.9458 86.3083 42.0748 86.4543 41.6378" fill="#090E2B"/></g><path id="nose" fill-rule="evenodd" clip-rule="evenodd" d="M86.9878 70.3387C86.013 75.2575 79.9688 75.736 76.0322 74.6213C72.8324 73.7153 72.0033 71.8513 73.0852 71.2538C74.8484 70.2799 80.4996 72.989 82.5857 70.4028C86.3055 65.7913 74.8913 48.8346 78.5176 51.5592C83.3101 55.16 87.6385 67.0559 86.9878 70.3387Z" fill="#090E2B"/><path id="Fill 18" fill-rule="evenodd" clip-rule="evenodd" d="M89.6386 90.5818C88.8706 91.1602 87.0676 93.5464 85.2445 95.0617C81.1443 98.4697 74.4744 99.2531 70.5442 98.4697C63.1557 96.9971 59.9594 92.1782 58.0065 90.8586C56.0537 89.539 59.7198 87.8443 62.5247 88.0931C65.3297 88.342 67.2122 89.1562 72.5652 91.4593C76.0197 92.9455 83.8309 90.8586 86.038 89.539C90.2482 87.0217 91.5111 89.1717 89.6386 90.5818Z" fill="#090E2B"/></g></g><g id="Facial Accesories" transform="translate(459 529) scale(120 110)"><g id="Facial Accesories/None" stroke="none" stroke-width="1" fill="none" fill-rule="evenodd" fill-opacity="0"/></g><g id="Glass" transform="translate(462 484) scale(120 75)"><g id="Glass/None" stroke="none" stroke-width="1" fill="none" fill-rule="evenodd" fill-opacity="0"/></g></g></g><g id="Master/Character/Sitting [colors]" transform="matrix(-1 0 0 1 2832 589) scale(1 1)"><g id="Master/Character/Sitting [colors]"><g id="Lower Body/Sitting" transform="translate(179 940) scale(1 1)"><g id="Lower Body/Sitting/On Chair 1"><path id="Fill 3" fill-rule="evenodd" clip-rule="evenodd" d="M410.615 399.5C410.615 399.5 400.358 471.95 396.172 502.906C391.95 534.126 467.049 503.737 467.049 503.737C467.049 503.737 453.51 484.443 453.305 479.158C453.101 473.871 476.219 412 476.219 412L410.615 399.5Z" fill="#ff8282"/><path id="Fill 5" fill-rule="evenodd" clip-rule="evenodd" d="M561.036 0C597.898 16.8477 635.154 59.3885 602.589 139.129C570.025 218.869 493.394 411.872 481.35 420.555C469.306 429.239 405.785 412 405.785 412C405.785 412 412.733 330.944 426.535 251.243C436.642 192.88 457.953 150.326 457.953 150.326C457.953 150.326 286.541 174.784 243.983 146.076C188.125 108.397 229.481 6.86054 261.586 -5.71064C302.859 -21.8714 490.855 -32.0758 561.036 0Z" fill="#090E2B"/><path id="Fill 17" fill-rule="evenodd" clip-rule="evenodd" d="M559.105 537.55C553.719 520.869 514.662 509.853 486.46 501.514C476.967 498.706 463.703 484.835 457.546 485.001C448.582 485.245 457.367 503.898 427.363 502.274C419.419 501.845 418.852 493.484 401.592 491.581C398.787 491.273 394.499 490.728 390.796 497.394C388.732 501.111 380.282 534.664 388.578 548.345C446.664 549.846 506.413 548.363 558.02 547.882C563.06 547.834 560.482 541.819 559.105 537.55" fill="#FF0057"/><path id="Fill 1" fill-rule="evenodd" clip-rule="evenodd" d="M654.971 412C654.971 412 665.531 466.51 672.596 475.378C679.663 484.243 716.329 494.221 717.975 499.698C719.619 505.175 639.821 518 639.821 518L591 416.698L654.971 412Z" fill="#ff8282"/><path id="Fill 10" fill-rule="evenodd" clip-rule="evenodd" d="M790.105 534.55C784.719 517.87 745.662 506.853 717.46 498.513C707.967 495.706 694.703 481.834 688.546 482.001C679.582 482.244 688.367 500.898 658.363 499.274C650.42 498.845 649.853 490.483 632.592 488.581C629.787 488.272 625.499 487.728 621.796 494.393C619.732 498.11 611.282 531.663 619.578 545.346C677.664 546.846 737.413 545.362 789.02 544.881C794.06 544.833 791.482 538.818 790.105 534.55" fill="#FF0057"/><path id="Fill 15" fill-rule="evenodd" clip-rule="evenodd" d="M722.705 510.43C726.392 503.004 728.005 501.713 726.433 500.544C722.673 497.748 703.571 506.385 702.07 511.523C700.945 515.374 713.664 504.229 723.821 502.566C719.659 506.366 715.779 518.02 719.874 515.696C739.827 504.382 742.974 507.006 742.999 506.586C743.117 504.585 735.566 502.967 722.705 510.43" fill="#FFB201"/><path id="Fill 7" fill-rule="evenodd" clip-rule="evenodd" d="M180.128 77C192.092 138.955 247.292 161.212 295.191 159.362C368.357 156.536 442.941 124.042 468.153 113.183C465.932 129.164 477.806 220.025 497.63 262.074C517.453 304.124 582.01 430.62 582.01 430.62C582.01 430.62 654.852 431.05 657.967 413.369C660.016 401.738 591.632 76.8495 569.01 20.5962C556.02 -11.7083 513.977 -25.6487 427.502 -33C340.648 -40.3834 214.032 -26.7716 214.032 -26.7716C214.032 -26.7716 168.163 15.0448 180.128 77Z" fill="#001386"/><path id="Fill 22" fill-rule="evenodd" clip-rule="evenodd" d="M491.705 514.43C495.392 507.005 497.005 505.714 495.432 504.544C491.672 501.749 472.571 510.385 471.07 515.522C469.945 519.373 482.664 508.228 492.821 506.566C488.659 510.367 484.778 522.019 488.874 519.697C508.827 508.381 511.974 511.006 511.999 510.585C512.117 508.585 504.566 506.966 491.705 514.43" fill="#FFB201"/><path id="Fill 19" fill-rule="evenodd" clip-rule="evenodd" d="M546.831 554.391L407.016 556.857C397.662 557.231 383.67 554.014 382.317 546.243C381.306 540.437 383.554 527.795 384.02 526.954C387.277 521.094 415.032 526.038 423.117 545.827C474.131 549.649 561.008 545.912 561.008 545.912C561.008 545.912 562.312 553.593 546.831 554.391" fill="#090E2B"/><path id="Fill 12" fill-rule="evenodd" clip-rule="evenodd" d="M777.721 550.785L637.906 553.251C628.553 553.625 614.56 550.409 613.207 542.638C612.197 536.832 614.444 524.19 614.911 523.349C618.167 517.489 645.922 522.433 654.007 542.222C705.021 546.044 791.899 542.307 791.899 542.307C791.899 542.307 793.202 549.988 777.721 550.785" fill="#090E2B"/></g></g><g id="Upper Body/Sitting" transform="translate(243 170) scale(1 1.0010526315789474)"><g id="Upper Body/Sitting/Talking 1"><path id="hand-2" fill-rule="evenodd" clip-rule="evenodd" d="M362.489 617C362.489 617 384.103 664.926 396.435 673.598C405.517 679.985 523.763 668.406 542.123 665.045C585.762 657.056 592.887 666.285 593.503 668.042C595.379 673.396 581.113 670.761 581.113 670.761C581.113 670.761 604.12 679.048 615.711 687.369C627.301 695.691 617.037 701.073 611.48 701.791C576.264 706.337 569.899 691.506 543.185 691.506C517.573 691.506 396.435 752.868 355.238 722.62C312.407 691.171 304 624.652 304 624.652L362.489 617Z" fill="#ff8282"/><path id="neck" fill-rule="evenodd" clip-rule="evenodd" d="M263.651 454.265C268.848 464.274 299.509 477.963 299.509 477.963L305 507.345L191.16 519C177.987 516.086 141.022 488.786 149.157 477.963C157.292 467.139 192.987 460.552 198.228 452.109C208.291 435.901 210.13 402.951 209.853 390.505C209.853 387.414 263.861 399.517 263.861 399.517C263.861 399.517 257.124 441.695 263.651 454.265Z" fill="#ff8282"/><path id="Cloth-2" fill-rule="evenodd" clip-rule="evenodd" d="M311.871 484C315.299 486.751 338.905 496.688 346.235 532.2C348.874 544.981 365.933 592.818 381 631.516C366.805 656.26 347.035 671.348 326.112 678L288 592.131C288 592.131 310.684 494.905 311.871 484" fill="#FF0057"/><path id="Cloth-1" fill-rule="evenodd" clip-rule="evenodd" d="M259.138 495.597C273.537 494.042 285.307 469.467 285.759 468.918C286.211 468.37 317.26 484.923 326.982 494.282C336.768 668.266 329.761 667.298 326.678 684.212C325.25 692.045 317.265 712.582 323.042 735.677C323.856 738.925 294.612 743.442 262.74 753.478C208.08 770.689 136.867 793.552 132.509 777.615C129.926 768.169 134.05 759.163 137.985 753.478C142.502 746.949 174.642 688.3 149.322 625.758C134.807 607.441 100.172 590.084 93.4051 538.931C90.0816 513.813 108.114 496.362 114.391 491.171C135.364 473.828 168.545 463.572 170.78 464.014C184.22 466.673 230.649 498.675 259.138 495.597Z" fill="#FF0057"/><path id="Fill 15" fill-rule="evenodd" clip-rule="evenodd" d="M322.559 525.141C327.171 538.985 333.685 552.507 337.401 566.628C339.833 576.132 340.305 586.27 339.84 596.026C338.872 617.178 335.133 638.218 330.972 658.937C328.852 669.487 327.668 675.898 326.991 677.557C326.071 679.808 326.346 673.486 328.908 658.576C331.465 641.616 334.641 622.505 336.287 605.569C337.523 592.869 337.317 578.929 334.532 566.404C332.006 555.372 328.063 545.559 324.683 534.719C324.488 533.208 320.577 523.738 322.559 525.141" fill="#090E2B"/><path id="hand-1" fill-rule="evenodd" clip-rule="evenodd" d="M151.918 646.297C151.918 646.297 147.221 690.716 150.325 695.33C236.83 760.949 270.237 809.908 284.292 818.749C300.955 829.227 322.715 829.635 329.871 836.625C335.437 842.064 341.444 844.626 341.517 845.442C342.029 851.126 327.469 846.917 327.469 846.917C327.469 846.917 333.939 860.725 343.129 871.677C352.317 882.627 336.613 882.841 331.049 882.303C303.961 879.683 289.253 849.502 274.805 839.565C238.296 814.46 98.7744 756.532 77.7378 727.285C56.7011 698.037 77.7378 603.315 77.7378 603.315L151.918 646.297Z" fill="#ff8282"/><path id="Cloth-3" fill-rule="evenodd" clip-rule="evenodd" d="M62 644.158C73.1142 664.703 128.055 667 153.931 667C153.931 667 155.509 653.409 160.581 634.375C166.977 610.374 98.0039 511 98.0039 511C83.5306 539.849 71.1408 588.408 62 644.158Z" fill="#FF0057"/><path id="Fill 17" fill-rule="evenodd" clip-rule="evenodd" d="M157.005 653.762C156.967 653.083 157.149 650.363 157.267 649.588C161.113 624.206 163.459 615.829 167.979 590.443C167.98 590.443 175.258 548.727 177 550.03C173.936 577.387 157.307 658.964 157.005 653.762Z" fill="#090E2B"/></g></g><g id="Head" transform="translate(341 346) scale(1 1)"><g id="Head/Afro"><path id="Fill 1" fill-rule="evenodd" clip-rule="evenodd" d="M231.631 151.302C236.454 169.036 245.811 200.717 229.26 232.604C218.079 254.145 198.87 266.808 180.781 266.808C172.028 266.808 143.639 257.641 128.915 246.571C111.319 233.343 100.912 219.183 100.883 185.567C100.852 150.376 106.194 130.015 125.505 112.356C149.713 90.2149 222.693 88.2139 228.747 116.044C228.747 116.044 226.807 133.567 231.631 151.302Z" fill="#ff8282"/><path id="Fill 3" fill-rule="evenodd" clip-rule="evenodd" d="M186.161 279.801C198.329 282.114 206.146 278.403 210.782 275.451C216.032 283.751 242.855 283.107 247.362 258.387C265.508 256.621 289.337 245.943 281.132 217.989C295.674 218.877 295.994 198.911 290.118 187.542C308.545 181.778 310.889 155.009 298.105 142.315C308.482 138.445 315.17 119.439 298.105 93.744C307.202 73.4891 298.105 59.3433 287.48 60.108C288.765 53.7857 292.102 48.3571 273.848 46.3906C276.552 29.3545 269.743 7.14466 240.183 11.9627C236.802 -7.69516 218.672 -16.6721 205.715 -6.12308C194.897 -24.4705 161.996 -24.1371 153.945 -3.70874C135.25 -22.8568 104.941 -4.71867 97.504 12.9736C86.595 -1.53283 61.151 -2.25877 46.231 30.9576C14.374 29.0017 -4.86402 42.2238 2.07198 67.1C-15.345 69.7654 -33.78 91.4247 -15.698 120.429C-25.49 121.927 -32.781 150.208 -15.945 153.459C-26.103 160.901 -24.487 192.889 3.23098 194.199C-11.02 199.998 -11.642 228.928 8.63998 233.515C3.69498 259.129 27.256 267.23 41.767 259.07C43.772 281.317 79.0095 284.841 89.4595 270.391C106.654 276.448 118.476 269.41 121.079 263.008C129.209 243.013 118.389 236.64 118.389 236.64C125.759 226.622 115.472 207.799 104.383 202.76C94.418 198.231 100.827 178.347 104.383 167.201C115.557 171.092 117.293 186.285 121.079 175.379C124.865 164.473 123.263 157.148 123.263 157.148C131.647 146.804 148.182 151.293 147.473 130.634C155.278 136.169 167.271 133.586 169.194 124.517C180.491 138.344 195.355 133.394 198.329 126.255C200.917 134.937 213.453 138.33 226.951 133.001C225.378 143.659 229.26 153.74 235.071 176.987C237.247 185.691 243.856 217.989 219.038 248.091C205.341 264.704 186.024 270.901 160.959 262.426C160.959 262.426 164.312 275.643 186.161 279.801Z" fill="#090E2B"/><path id="Fill 6" fill-rule="evenodd" clip-rule="evenodd" d="M116.453 175.435C115.033 169.439 102.363 156.787 90.0578 163.719C82.3908 168.038 78.9725 177.246 83.2976 187.751C87.6228 198.256 104.109 208.331 113.653 202.277C123.196 196.223 117.873 181.431 116.453 175.435Z" fill="#ff8282"/><path id="Fill 8" fill-rule="evenodd" clip-rule="evenodd" d="M130.844 247.755C140.999 254.044 151.196 257.895 161.161 261.424C162.281 261.82 161.214 262.52 160.041 262.447C149.714 261.814 137.573 254.173 135.002 252.412C129.728 248.802 127.379 245.609 130.844 247.755" fill="#090E2B"/><path id="Fill 10" fill-rule="evenodd" clip-rule="evenodd" d="M100.806 172.72C98.8804 171.458 97.3341 170.607 96.2395 170.413C94.0441 170.023 96.9868 171.504 99.636 174.152C101.212 175.725 102.834 177.806 104.068 179.845C101.504 181.226 98.2436 185.324 99.6563 190.765C100.551 191.549 100.424 188.759 101.23 186.975C102.644 183.847 104.488 183.309 105.685 182.843C106.607 184.613 107.437 186.729 108.114 189.383C108.252 189.928 109.47 191.17 109.746 189.031C109.738 182.921 106.024 176.143 100.806 172.72Z" fill="#090E2B"/></g></g><g id="Expressions" transform="translate(462 479) scale(1 1)"><g id="Expressions/Smile"><g id="eye1"><path id="Fill 1" fill-rule="evenodd" clip-rule="evenodd" d="M21.0758 18.1794C22.852 10.1965 46.2248 7.39836 56.5098 13.5794C60.0658 15.6924 66.6698 21.4974 60.8228 24.6574C59.2788 25.3294 57.7788 24.6404 56.5098 23.8214C42.4918 14.0794 19.8377 23.7442 21.0758 18.1794Z" fill="#090E2B"/><path id="Fill 6" fill-rule="evenodd" clip-rule="evenodd" d="M40.0382 32.611C34.7502 34.111 30.2172 38.361 29.7962 41.883C29.5412 44.011 37.8912 49.12 45.9442 49.517C56.5382 50.038 61.8782 44.299 61.8592 42.465C61.1462 36.915 54.7552 28.437 40.0382 32.611Z" fill="white"/><path id="Fill 8" fill-rule="evenodd" clip-rule="evenodd" d="M56.4251 35.7687C48.2821 29.6147 35.6701 33.6247 29.7961 41.8827C29.4591 42.3107 29.5561 41.2337 29.7901 40.7427C32.6241 34.7957 37.7371 31.9887 43.6651 30.7647C47.2321 30.0277 50.5581 29.9677 54.0371 31.5257C55.3821 32.1267 57.7581 33.9587 59.5941 36.0307C61.0261 37.6457 62.2321 40.4147 60.5751 39.4357C59.2781 38.6687 57.5051 36.5857 56.4251 35.7687Z" fill="#090E2B"/><path id="Fill 10" fill-rule="evenodd" clip-rule="evenodd" d="M45.8406 46.276C50.3676 46.276 54.0376 42.928 54.0376 38.797C54.0376 34.667 50.3676 31.318 45.8406 31.318C41.3136 31.318 37.6436 34.667 37.6436 38.797C37.6436 42.928 41.3136 46.276 45.8406 46.276Z" fill="#090E2B"/></g><g id="eye2"><path id="Fill 4" fill-rule="evenodd" clip-rule="evenodd" d="M104.459 16.8614C107.813 18.3492 112.278 23.2873 108.561 23.2873C104.844 23.2873 96.7936 22.2329 91.3966 24.4599C89.5116 24.9419 88.0811 25.8643 86.1881 26.0893C81.8801 26.9283 79.5395 21.7686 82.5855 18.6492C86.0265 15.1253 97.6434 13.4544 104.459 16.8614Z" fill="#090E2B"/><path id="Fill 12" fill-rule="evenodd" clip-rule="evenodd" d="M100.659 49.2345C106.03 47.9855 110.047 43.1155 109.593 39.4765C108.707 34.6545 99.422 31.5755 94.221 34.2085C89.07 36.8155 85.847 42.6405 86.263 44.9405C86.864 46.5325 95.17 50.5115 100.659 49.2345Z" fill="white"/><path id="Fill 14" fill-rule="evenodd" clip-rule="evenodd" d="M96.2146 46.6062C99.7526 46.6062 102.621 43.8522 102.621 40.4562C102.621 37.0592 100.6 33.8492 96.2146 34.3062C92.6956 34.6722 89.8076 37.0592 89.8076 40.4562C89.8076 43.8522 92.6766 46.6062 96.2146 46.6062Z" fill="#090E2B"/><path id="Fill 22" fill-rule="evenodd" clip-rule="evenodd" d="M86.4543 41.6378C88.4833 34.0638 97.6443 30.1688 104.889 33.7548C105.909 34.2868 107.565 35.4808 108.805 36.9228C109.946 38.2528 109.797 38.9498 109.331 38.8118C108.559 38.5818 106.926 37.1168 105.599 36.4868C98.8893 33.3038 91.9083 35.0898 86.7973 42.5588C86.5463 42.9458 86.3083 42.0748 86.4543 41.6378" fill="#090E2B"/></g><path id="nose" fill-rule="evenodd" clip-rule="evenodd" d="M86.9878 70.3387C86.013 75.2575 79.9688 75.736 76.0322 74.6213C72.8324 73.7153 72.0033 71.8513 73.0852 71.2538C74.8484 70.2799 80.4996 72.989 82.5857 70.4028C86.3055 65.7913 74.8913 48.8346 78.5176 51.5592C83.3101 55.16 87.6385 67.0559 86.9878 70.3387Z" fill="#090E2B"/><path id="Fill 18" fill-rule="evenodd" clip-rule="evenodd" d="M89.6386 90.5818C88.8706 91.1602 87.0676 93.5464 85.2445 95.0617C81.1443 98.4697 74.4744 99.2531 70.5442 98.4697C63.1557 96.9971 59.9594 92.1782 58.0065 90.8586C56.0537 89.539 59.7198 87.8443 62.5247 88.0931C65.3297 88.342 67.2122 89.1562 72.5652 91.4593C76.0197 92.9455 83.8309 90.8586 86.038 89.539C90.2482 87.0217 91.5111 89.1717 89.6386 90.5818Z" fill="#090E2B"/></g></g><g id="Facial Accesories" transform="translate(459 529) scale(120 110)"><g id="Facial Accesories/None" stroke="none" stroke-width="1" fill="none" fill-rule="evenodd" fill-opacity="0"/></g><g id="Glass" transform="translate(462 484) scale(120 75)"><g id="Glass/None" stroke="none" stroke-width="1" fill="none" fill-rule="evenodd" fill-opacity="0"/></g></g></g></g></svg>