<svg width="588" height="405" viewBox="0 0 588 405" fill="none" xmlns="http://www.w3.org/2000/svg">
<path fill-rule="evenodd" clip-rule="evenodd" d="M462.37 364.999C462.37 383.179 391.021 397.917 303.007 397.917C214.995 397.917 143.646 383.179 143.646 364.999C143.646 346.818 214.995 332.081 303.007 332.081C391.021 332.081 462.37 346.818 462.37 364.999Z" fill="#FFDDDD"/>
<path fill-rule="evenodd" clip-rule="evenodd" d="M162.544 371.099C162.739 371.099 162.897 370.94 162.897 370.744C162.897 370.023 163.608 369.453 164.36 369.735C164.523 369.794 164.704 369.73 164.791 369.58C164.988 369.238 165.337 369.034 165.723 369.034C166.212 369.034 166.64 369.367 166.764 369.844C166.797 369.968 166.894 370.066 167.018 370.098C167.142 370.13 167.275 370.091 167.363 369.998C167.57 369.781 167.846 369.662 168.143 369.662C168.739 369.662 169.224 370.147 169.224 370.744C169.224 370.94 169.383 371.099 169.578 371.099C169.773 371.099 169.932 370.94 169.932 370.744C169.932 369.756 169.129 368.953 168.143 368.953C167.824 368.953 167.519 369.035 167.25 369.192C166.933 368.664 166.359 368.325 165.723 368.325C165.185 368.325 164.676 368.575 164.339 368.991C163.226 368.755 162.19 369.636 162.19 370.744C162.19 370.94 162.348 371.099 162.544 371.099ZM405.48 389.851C376.86 394.824 340.468 397.562 303.007 397.562C215.33 397.562 143.999 382.955 143.999 364.999C143.999 364.803 143.841 364.644 143.645 364.644C143.45 364.644 143.291 364.803 143.291 364.999C143.291 373.978 159.968 382.368 190.25 388.623C220.373 394.845 260.417 398.271 303.007 398.271C340.507 398.271 376.942 395.529 405.601 390.549C405.794 390.516 405.923 390.332 405.889 390.139C405.856 389.946 405.673 389.811 405.48 389.851ZM202.937 366.386C203.133 366.386 203.291 366.227 203.291 366.032C203.291 365.309 204.007 364.74 204.753 365.021C204.914 365.083 205.098 365.018 205.185 364.867C205.382 364.526 205.73 364.321 206.117 364.321C206.605 364.321 207.034 364.654 207.158 365.13C207.191 365.255 207.288 365.352 207.412 365.384C207.537 365.415 207.668 365.378 207.756 365.286C207.964 365.067 208.241 364.948 208.537 364.948C209.133 364.948 209.618 365.434 209.618 366.032C209.618 366.227 209.776 366.386 209.972 366.386C210.167 366.386 210.326 366.227 210.326 366.032C210.326 365.043 209.523 364.239 208.537 364.239C208.218 364.239 207.913 364.322 207.644 364.479C207.327 363.951 206.753 363.612 206.117 363.612C205.579 363.612 205.07 363.861 204.734 364.278C203.622 364.035 202.584 364.922 202.584 366.032C202.584 366.227 202.741 366.386 202.937 366.386ZM408.149 381.73C407.831 381.73 407.525 381.813 407.257 381.971C406.94 381.443 406.366 381.103 405.73 381.103C405.191 381.103 404.683 381.353 404.346 381.77C403.233 381.528 402.196 382.414 402.196 383.523C402.196 383.719 402.354 383.877 402.55 383.877C402.746 383.877 402.903 383.719 402.903 383.523C402.903 382.801 403.619 382.231 404.366 382.513C404.526 382.575 404.711 382.51 404.798 382.359C404.995 382.016 405.343 381.812 405.73 381.812C406.218 381.812 406.646 382.145 406.77 382.622C406.804 382.746 406.9 382.843 407.024 382.875C407.149 382.908 407.28 382.87 407.369 382.777C407.576 382.559 407.853 382.439 408.149 382.439C408.746 382.439 409.23 382.926 409.23 383.523C409.23 383.719 409.389 383.877 409.584 383.877C409.78 383.877 409.938 383.719 409.938 383.523C409.938 382.534 409.136 381.73 408.149 381.73ZM413.152 366.676C412.833 366.676 412.528 366.759 412.259 366.916C411.942 366.387 411.368 366.049 410.733 366.049C410.194 366.049 409.685 366.298 409.349 366.714C408.233 366.48 407.199 367.361 407.199 368.468C407.199 368.663 407.357 368.822 407.553 368.822C407.748 368.822 407.907 368.663 407.907 368.468C407.907 367.747 408.617 367.175 409.369 367.458C409.531 367.519 409.714 367.454 409.8 367.303C409.998 366.962 410.346 366.758 410.733 366.758C411.22 366.758 411.649 367.091 411.774 367.568C411.806 367.692 411.903 367.789 412.028 367.821C412.152 367.854 412.284 367.815 412.373 367.722C412.579 367.505 412.856 367.385 413.152 367.385C413.748 367.385 414.234 367.871 414.234 368.468C414.234 368.663 414.392 368.822 414.588 368.822C414.783 368.822 414.942 368.663 414.942 368.468C414.942 367.48 414.138 366.676 413.152 366.676ZM371.597 360.942C371.792 360.942 371.95 360.783 371.95 360.587C371.95 359.866 372.66 359.296 373.413 359.578C373.575 359.637 373.757 359.573 373.844 359.423C374.041 359.082 374.39 358.877 374.776 358.877C375.265 358.877 375.693 359.21 375.817 359.687C375.85 359.812 375.948 359.909 376.071 359.941C376.195 359.973 376.328 359.934 376.416 359.842C376.623 359.624 376.899 359.504 377.196 359.504C377.792 359.504 378.277 359.99 378.277 360.587C378.277 360.783 378.436 360.942 378.631 360.942C378.826 360.942 378.985 360.783 378.985 360.587C378.985 359.599 378.182 358.795 377.196 358.795C376.877 358.795 376.572 358.879 376.303 359.035C375.986 358.507 375.412 358.168 374.776 358.168C374.238 358.168 373.729 358.418 373.392 358.834C372.277 358.599 371.243 359.479 371.243 360.587C371.243 360.783 371.401 360.942 371.597 360.942ZM328.575 387.936C328.77 387.936 328.929 387.777 328.929 387.581C328.929 386.86 329.639 386.29 330.391 386.572C330.553 386.631 330.736 386.568 330.822 386.417C331.019 386.076 331.368 385.871 331.755 385.871C332.242 385.871 332.67 386.205 332.796 386.681C332.828 386.804 332.925 386.902 333.049 386.934C333.174 386.966 333.305 386.929 333.394 386.836C333.601 386.619 333.878 386.499 334.174 386.499C334.77 386.499 335.255 386.985 335.255 387.581C335.255 387.777 335.413 387.936 335.609 387.936C335.805 387.936 335.963 387.777 335.963 387.581C335.963 386.593 335.16 385.79 334.174 385.79C333.854 385.79 333.549 385.873 333.281 386.03C332.964 385.501 332.39 385.162 331.755 385.162C331.216 385.162 330.707 385.412 330.37 385.828C329.256 385.594 328.221 386.474 328.221 387.581C328.221 387.777 328.379 387.936 328.575 387.936ZM248.761 380.938C248.444 380.41 247.87 380.071 247.234 380.071C246.696 380.071 246.187 380.321 245.85 380.737C244.735 380.502 243.701 381.382 243.701 382.49C243.701 382.686 243.859 382.844 244.055 382.844C244.25 382.844 244.408 382.686 244.408 382.49C244.408 381.769 245.118 381.198 245.871 381.481C246.033 381.54 246.215 381.476 246.302 381.326C246.499 380.984 246.848 380.78 247.234 380.78C247.722 380.78 248.15 381.113 248.275 381.59C248.308 381.715 248.405 381.811 248.529 381.843C248.653 381.876 248.786 381.837 248.874 381.745C249.081 381.527 249.357 381.407 249.653 381.407C250.25 381.407 250.735 381.893 250.735 382.49C250.735 382.686 250.893 382.844 251.089 382.844C251.285 382.844 251.443 382.686 251.443 382.49C251.443 381.502 250.64 380.698 249.653 380.698C249.335 380.698 249.03 380.781 248.761 380.938ZM235.364 335.539C235.375 335.539 235.387 335.539 235.399 335.538C256.625 333.478 279.372 332.436 303.007 332.436C303.203 332.436 303.361 332.277 303.361 332.081C303.361 331.885 303.203 331.727 303.007 331.727C279.349 331.727 256.58 332.771 235.33 334.832C235.135 334.851 234.993 335.024 235.012 335.219C235.03 335.402 235.184 335.539 235.364 335.539ZM312.974 343.701C313.169 343.701 313.328 343.543 313.328 343.347C313.328 342.626 314.039 342.056 314.791 342.338C314.954 342.397 315.135 342.333 315.222 342.183C315.419 341.841 315.767 341.637 316.154 341.637C316.642 341.637 317.07 341.97 317.195 342.446C317.227 342.57 317.324 342.667 317.449 342.699C317.573 342.731 317.704 342.694 317.794 342.601C318 342.384 318.278 342.264 318.574 342.264C319.169 342.264 319.655 342.75 319.655 343.347C319.655 343.543 319.813 343.701 320.009 343.701C320.204 343.701 320.363 343.543 320.363 343.347C320.363 342.359 319.56 341.555 318.574 341.555C318.254 341.555 317.949 341.638 317.681 341.795C317.364 341.267 316.79 340.928 316.154 340.928C315.615 340.928 315.106 341.178 314.77 341.594C313.658 341.359 312.62 342.239 312.62 343.347C312.62 343.543 312.779 343.701 312.974 343.701Z" fill="black"/>
<path fill-rule="evenodd" clip-rule="evenodd" d="M396.911 216.284H208.138V263.562H267.13V229.645H396.911V216.284Z" fill="#83BB9E"/>
<path fill-rule="evenodd" clip-rule="evenodd" d="M396.911 215.929C396.716 215.929 396.558 216.088 396.558 216.284V229.461H208.492V216.284C208.492 216.088 208.335 215.929 208.139 215.929C207.943 215.929 207.785 216.088 207.785 216.284V349.722C207.785 349.918 207.943 350.077 208.139 350.077C208.335 350.077 208.492 349.918 208.492 349.722V230.17H396.558V349.722C396.558 349.918 396.716 350.077 396.911 350.077C397.107 350.077 397.265 349.918 397.265 349.722V216.284C397.265 216.088 397.107 215.929 396.911 215.929ZM225.763 237.512H249.848V236.337H225.763V237.512ZM250.202 235.628H225.409C225.213 235.628 225.055 235.787 225.055 235.983V237.866C225.055 238.063 225.213 238.221 225.409 238.221H250.202C250.398 238.221 250.556 238.063 250.556 237.866V235.983C250.556 235.787 250.398 235.628 250.202 235.628Z" fill="black"/>
<path fill-rule="evenodd" clip-rule="evenodd" d="M211.782 216.314H221.269V177.597H211.782V216.314Z" fill="#E2A2B5"/>
<path fill-rule="evenodd" clip-rule="evenodd" d="M221.269 216.314H230.755V186.182H221.269V216.314Z" fill="#94B1EB"/>
<path fill-rule="evenodd" clip-rule="evenodd" d="M230.756 185.827C230.56 185.827 230.402 185.986 230.402 186.182V215.959H221.623V192.174C221.623 191.978 221.464 191.819 221.269 191.819C221.073 191.819 220.915 191.978 220.915 192.174V215.959H211.782C211.587 215.959 211.428 216.118 211.428 216.314C211.428 216.51 211.587 216.668 211.782 216.668H230.756C230.951 216.668 231.11 216.51 231.11 216.314V186.182C231.11 185.986 230.951 185.827 230.756 185.827Z" fill="black"/>
<path fill-rule="evenodd" clip-rule="evenodd" d="M402.863 275.147H479.355V264.512H402.863V275.147Z" fill="#94B1EB"/>
<path fill-rule="evenodd" clip-rule="evenodd" d="M495.396 218.049C494.006 220.486 492.378 221.89 490.64 221.89C485.555 221.89 481.418 209.888 481.418 195.135C481.418 180.383 485.555 168.381 490.64 168.381C495.724 168.381 499.861 180.383 499.861 195.135C499.861 204.676 498.13 213.06 495.532 217.798C495.454 217.859 495.403 217.947 495.396 218.049ZM490.64 167.672C485.072 167.672 480.711 179.735 480.711 195.135C480.711 210.536 485.072 222.599 490.64 222.599C492.403 222.599 494.045 221.386 495.466 219.242C496.288 232.45 493.987 250.851 479.104 265.76C478.966 265.899 478.966 266.123 479.104 266.261C479.174 266.331 479.264 266.366 479.355 266.366C479.445 266.366 479.535 266.331 479.604 266.261C495.056 250.782 497.114 231.605 496.103 218.191C498.811 213.335 500.569 204.91 500.569 195.135C500.569 179.735 496.207 167.672 490.64 167.672ZM479.709 264.674C479.709 264.478 479.55 264.32 479.355 264.32H402.863C402.667 264.32 402.51 264.478 402.51 264.674V274.438C402.51 274.634 402.667 274.793 402.863 274.793C403.059 274.793 403.217 274.634 403.217 274.438V265.029H479.355C479.55 265.029 479.709 264.87 479.709 264.674ZM463.674 338.928L443.116 325.644V267.281C443.116 267.093 442.958 266.941 442.763 266.941C442.567 266.941 442.409 267.093 442.409 267.281V325.644L421.73 339.005C421.079 338.75 420.369 338.607 419.622 338.607C416.537 338.607 414.037 341.012 414.037 343.979C414.037 346.946 416.537 349.351 419.622 349.351C422.707 349.351 425.208 346.946 425.208 343.979C425.208 342.009 424.101 340.291 422.457 339.356L442.409 326.465V338.624C439.489 338.801 437.177 341.127 437.177 343.979C437.177 346.946 439.678 349.351 442.763 349.351C445.847 349.351 448.348 346.946 448.348 343.979C448.348 341.127 446.036 338.8 443.116 338.624V326.465L462.906 339.252C461.162 340.161 459.975 341.936 459.975 343.979C459.975 346.946 462.477 349.351 465.561 349.351C468.646 349.351 471.147 346.946 471.147 343.979C471.147 341.012 468.646 338.607 465.561 338.607C464.898 338.607 464.264 338.723 463.674 338.928Z" fill="black"/>
<path fill-rule="evenodd" clip-rule="evenodd" d="M105.803 219.467C107.193 221.904 108.821 223.308 110.559 223.308C115.644 223.308 119.78 211.306 119.78 196.553C119.78 181.801 115.644 169.799 110.559 169.799C105.475 169.799 101.337 181.801 101.337 196.553C101.337 206.094 103.069 214.478 105.667 219.216C105.745 219.277 105.796 219.365 105.803 219.467ZM110.559 169.09C116.126 169.09 120.488 181.153 120.488 196.553C120.488 211.954 116.126 224.017 110.559 224.017C108.795 224.017 107.153 222.804 105.732 220.66C104.911 233.868 107.212 252.269 122.095 267.178C122.233 267.317 122.233 267.541 122.095 267.679C122.025 267.749 121.935 267.784 121.844 267.784C121.753 267.784 121.664 267.749 121.594 267.679C106.143 252.2 104.085 233.023 105.095 219.609C102.388 214.753 100.63 206.328 100.63 196.553C100.63 181.153 104.991 169.09 110.559 169.09ZM121.49 266.092C121.49 265.896 121.649 265.738 121.844 265.738H198.335C198.531 265.738 198.689 265.896 198.689 266.092V275.856C198.689 276.052 198.531 276.21 198.335 276.21C198.14 276.21 197.982 276.052 197.982 275.856V266.447H121.844C121.649 266.447 121.49 266.288 121.49 266.092ZM137.525 340.346L158.082 327.062V268.699C158.082 268.511 158.241 268.359 158.436 268.359C158.632 268.359 158.79 268.511 158.79 268.699V327.062L179.469 340.423C180.12 340.168 180.83 340.025 181.577 340.025C184.662 340.025 187.162 342.43 187.162 345.397C187.162 348.364 184.662 350.769 181.577 350.769C178.492 350.769 175.991 348.364 175.991 345.397C175.991 343.427 177.098 341.709 178.742 340.774L158.79 327.883V340.042C161.709 340.219 164.022 342.545 164.022 345.397C164.022 348.364 161.521 350.769 158.436 350.769C155.351 350.769 152.851 348.364 152.851 345.397C152.851 342.545 155.163 340.218 158.082 340.042V327.883L138.293 340.67C140.037 341.579 141.223 343.354 141.223 345.397C141.223 348.364 138.722 350.769 135.638 350.769C132.552 350.769 130.052 348.364 130.052 345.397C130.052 342.43 132.552 340.025 135.638 340.025C136.3 340.025 136.935 340.141 137.525 340.346Z" fill="black"/>
<path fill-rule="evenodd" clip-rule="evenodd" d="M198.336 276.565H121.844V266.802H198.336V276.565Z" fill="#EC7068"/>
<path fill-rule="evenodd" clip-rule="evenodd" d="M260.561 216.314H258.467C254.017 216.314 250.29 212.939 249.843 208.504L247.801 188.281H271.227L269.185 208.504C268.737 212.939 265.01 216.314 260.561 216.314Z" fill="#EC7068"/>
<path fill-rule="evenodd" clip-rule="evenodd" d="M269.83 210.384C269.149 210.384 268.419 210.35 267.633 210.291C267.398 210.274 267.222 210.07 267.24 209.835C267.257 209.6 267.479 209.425 267.696 209.44C273.657 209.884 275.877 208.897 277.307 202.208C278.107 198.47 277.982 195.969 276.924 194.564C275.656 192.878 273.015 192.698 269.956 192.488L268.953 192.418C268.718 192.401 268.542 192.196 268.559 191.962C268.577 191.726 268.795 191.552 269.015 191.567L270.013 191.638C273.281 191.86 276.102 192.053 277.605 194.05C278.837 195.688 279.007 198.337 278.141 202.387C276.768 208.802 274.454 210.384 269.83 210.384Z" fill="black"/>
<path fill-rule="evenodd" clip-rule="evenodd" d="M267.665 194.788C267.019 194.788 266.497 195.312 266.497 195.959C266.497 196.605 267.019 197.13 267.665 197.13C268.31 197.13 268.833 196.605 268.833 195.959C268.833 195.312 268.31 194.788 267.665 194.788ZM253.529 207.008C252.884 207.008 252.361 207.532 252.361 208.179C252.361 208.825 252.884 209.349 253.529 209.349C254.174 209.349 254.697 208.825 254.697 208.179C254.697 207.532 254.174 207.008 253.529 207.008ZM261.85 191.277C261.85 190.631 261.327 190.106 260.683 190.106C260.037 190.106 259.513 190.631 259.513 191.277C259.513 191.923 260.037 192.447 260.683 192.447C261.327 192.447 261.85 191.923 261.85 191.277ZM263.475 203.074C262.83 203.074 262.307 203.598 262.307 204.244C262.307 204.89 262.83 205.414 263.475 205.414C264.12 205.414 264.643 204.89 264.643 204.244C264.643 203.598 264.12 203.074 263.475 203.074ZM261.85 211.318C261.206 211.318 260.683 211.843 260.683 212.489C260.683 213.136 261.206 213.66 261.85 213.66C262.496 213.66 263.019 213.136 263.019 212.489C263.019 211.843 262.496 211.318 261.85 211.318ZM257.291 196.956C256.646 196.956 256.122 197.48 256.122 198.126C256.122 198.773 256.646 199.296 257.291 199.296C257.936 199.296 258.459 198.773 258.459 198.126C258.459 197.48 257.936 196.956 257.291 196.956ZM251.192 191.277C250.547 191.277 250.024 191.801 250.024 192.447C250.024 193.094 250.547 193.618 251.192 193.618C251.838 193.618 252.361 193.094 252.361 192.447C252.361 191.801 251.838 191.277 251.192 191.277Z" fill="#F1EFEF"/>
<path fill-rule="evenodd" clip-rule="evenodd" d="M484.581 116.723H581.019V34.1967H484.581V116.723Z" fill="#F1EFEF"/>
<path fill-rule="evenodd" clip-rule="evenodd" d="M490.965 53.6921H575.092V48.6676H490.965V53.6921Z" fill="#EC7068"/>
<path fill-rule="evenodd" clip-rule="evenodd" d="M530.437 40.3747H535.621V29.3246H530.437V40.3747ZM530.138 40.9731H535.919C536.084 40.9731 536.218 40.8391 536.218 40.6739V29.0254C536.218 28.8602 536.084 28.7262 535.919 28.7262H530.138C529.972 28.7262 529.839 28.8602 529.839 29.0254V40.6739C529.839 40.8391 529.972 40.9731 530.138 40.9731ZM551.354 64.9847H562.776V53.992H551.354V64.9847ZM551.354 78.0596H562.776V65.5824H551.354V78.0596ZM551.354 91.1353H562.776V78.658H551.354V91.1353ZM551.354 104.211H562.776V91.7337H551.354V104.211ZM539.336 64.9847H550.757V53.992H539.336V64.9847ZM539.336 78.0596H550.757V65.5824H539.336V78.0596ZM539.336 91.1353H550.757V78.658H539.336V91.1353ZM539.336 104.211H550.757V91.7337H539.336V104.211ZM527.318 64.9847H538.739V53.992H527.318V64.9847ZM527.318 78.0596H538.739V65.5824H527.318V78.0596ZM527.318 91.1353H538.739V78.658H527.318V91.1353ZM527.318 104.211H538.739V91.7337H527.318V104.211ZM515.299 64.9847H526.721V53.992H515.299V64.9847ZM515.299 78.0596H526.721V65.5824H515.299V78.0596ZM515.299 91.1353H526.721V78.658H515.299V91.1353ZM515.299 104.211H526.721V91.7337H515.299V104.211ZM503.281 64.9847H514.702V53.992H503.281V64.9847ZM503.281 78.0596H514.702V65.5824H503.281V78.0596ZM503.281 91.1353H514.702V78.658H503.281V91.1353ZM503.281 104.211H514.702V91.7337H503.281V104.211ZM575.092 65.5824C575.258 65.5824 575.391 65.4484 575.391 65.2832C575.391 65.1187 575.258 64.9847 575.092 64.9847H563.373V53.9913H575.092C575.258 53.9913 575.391 53.8573 575.391 53.6921C575.391 53.5269 575.258 53.3929 575.092 53.3929H490.965C490.8 53.3929 490.666 53.5269 490.666 53.6921C490.666 53.8573 490.8 53.9913 490.965 53.9913H502.684V64.9847H490.965C490.8 64.9847 490.666 65.1187 490.666 65.2832C490.666 65.4484 490.8 65.5824 490.965 65.5824H502.684V78.0596H490.965C490.8 78.0596 490.666 78.1936 490.666 78.3588C490.666 78.524 490.8 78.658 490.965 78.658H502.684V91.1353H490.965C490.8 91.1353 490.666 91.2693 490.666 91.4345C490.666 91.5997 490.8 91.7337 490.965 91.7337H502.684V104.211H490.965C490.8 104.211 490.666 104.345 490.666 104.51C490.666 104.675 490.8 104.809 490.965 104.809H575.092C575.258 104.809 575.391 104.675 575.391 104.51C575.391 104.345 575.258 104.211 575.092 104.211H563.373V91.7337H575.092C575.258 91.7337 575.391 91.5997 575.391 91.4345C575.391 91.2693 575.258 91.1353 575.092 91.1353H563.373V78.658H575.092C575.258 78.658 575.391 78.524 575.391 78.3588C575.391 78.1936 575.258 78.0596 575.092 78.0596H563.373V65.5824H575.092Z" fill="black"/>
<path fill-rule="evenodd" clip-rule="evenodd" d="M64.5092 349.215H32.1999C26.0124 349.215 20.9961 344.19 20.9961 337.991V276.918H75.713V337.991C75.713 344.19 70.6967 349.215 64.5092 349.215Z" fill="#F5E8A4"/>
<path fill-rule="evenodd" clip-rule="evenodd" d="M21.3498 337.991V276.919H20.6421V337.991C20.6421 344.376 25.8268 349.57 32.1998 349.57V348.861C26.2175 348.861 21.3498 343.984 21.3498 337.991Z" fill="black"/>
<path fill-rule="evenodd" clip-rule="evenodd" d="M41.87 229.3C29.8505 214.479 9.09833 205.702 9.09833 205.702C8.92881 278.231 40.9464 272.662 40.9464 272.662C44.4198 268.462 46.7891 264.401 48.2669 260.494C50.194 263.808 52.5353 267.184 55.3798 270.624C55.3798 270.624 104.191 279.116 103.93 168.542C103.93 168.542 48.4028 192.023 41.87 229.3Z" fill="#83BB9E"/>
<path fill-rule="evenodd" clip-rule="evenodd" d="M41.0182 276.684H29.4703C29.1839 276.684 28.9514 276.916 28.9514 277.204L29.9892 277.723H69.9249C70.2113 277.723 70.4438 277.491 70.4438 277.204C70.4438 276.916 70.2113 276.684 69.9249 276.684H54.5131C55.3839 270.245 64.1203 211.584 95.9838 181.491C96.1924 181.294 96.2017 180.965 96.0045 180.756C95.8084 180.548 95.4804 180.539 95.2708 180.735C62.931 211.28 54.2412 270.881 53.4649 276.684H42.0675C41.9865 276.152 41.7727 274.79 41.396 272.791C49.2804 263.139 52.095 253.369 49.7443 243.747C44.0414 220.401 9.4599 205.557 9.11119 205.409C8.84758 205.297 8.54349 205.422 8.43141 205.686C8.32036 205.95 8.44386 206.255 8.70747 206.366C9.05099 206.512 43.1593 221.158 48.7366 243.996C50.9492 253.057 48.3827 262.287 41.1376 271.449C38.7091 259.136 31.3114 229.171 14.5878 213.599C14.3792 213.405 14.0513 213.416 13.8541 213.626C13.659 213.835 13.6704 214.165 13.8811 214.36C30.8164 230.129 38.0843 260.974 40.2949 272.548C40.2046 272.747 40.243 272.979 40.4049 273.134C40.7287 274.866 40.9269 276.094 41.0182 276.684Z" fill="black"/>
<path fill-rule="evenodd" clip-rule="evenodd" d="M351.988 346.016C356.233 343.41 375.8 336.123 376.245 330.188C376.936 320.977 376.913 306.25 376.79 295.658C382.491 296.26 389.054 296.887 396.033 297.429L388.134 330.33C387.751 333.298 387.237 333.582 390.458 340.316C390.767 340.961 390.964 341.548 391.076 342.088C398.17 338.715 406.993 334.151 407.289 330.188C407.98 320.977 407.957 306.25 407.834 295.658C413.535 296.26 420.097 296.887 427.078 297.429L419.177 330.33C418.795 333.298 418.281 333.582 421.502 340.316C424.555 346.695 417.087 347.704 417.087 347.704L383.54 347.789C383.405 347.789 383.278 347.761 383.162 347.712L352.495 347.789C351.967 347.79 351.537 347.361 351.537 346.831C351.537 346.498 351.705 346.189 351.988 346.016Z" fill="#C3986A"/>
<path fill-rule="evenodd" clip-rule="evenodd" d="M468.574 218.363C468.574 218.363 475.611 245.005 472.476 254.077C469.651 262.25 463.697 267.925 436.673 265.686C436.673 265.686 426.41 320.804 426.41 321.301C426.41 321.728 409.591 319.971 404.705 319.452C403.974 319.374 403.439 318.724 403.502 317.99L408.66 264.109L404.686 264.275L394.787 318.43C394.672 319.133 394.033 319.626 393.326 319.558L372.718 317.583C371.985 317.513 371.443 316.866 371.5 316.131L377.176 249.132C377.837 240.586 385.033 234.037 393.587 234.196L405.183 234.411L406.507 218.363H468.574Z" fill="#F0BE91"/>
<path fill-rule="evenodd" clip-rule="evenodd" d="M351.711 347.752H356.934V342.364C356.934 342.007 357.153 341.684 357.486 341.552L361.957 339.774C362.53 339.547 363.152 339.969 363.152 340.588V347.752H387.979V342.364C387.979 342.007 388.197 341.684 388.53 341.552L393.001 339.774C393.574 339.547 394.196 339.969 394.196 340.588V347.752H421.003C421.881 347.752 422.592 348.465 422.592 349.343V349.621C422.592 350.5 421.881 351.212 421.003 351.212H351.711C350.833 351.212 350.122 350.5 350.122 349.621V349.343C350.122 348.465 350.833 347.752 351.711 347.752Z" fill="#83BB9E"/>
<path fill-rule="evenodd" clip-rule="evenodd" d="M363.152 340.233C362.957 340.233 362.798 340.392 362.798 340.587V348.107H381.267C380.988 348.444 380.812 348.872 380.812 349.344V349.621C380.812 349.817 380.97 349.976 381.166 349.976C381.362 349.976 381.52 349.817 381.52 349.621V349.344C381.52 348.662 382.074 348.107 382.754 348.107H387.979C388.175 348.107 388.333 347.949 388.333 347.752C388.333 347.557 388.175 347.398 387.979 347.398H382.754C382.738 347.398 382.723 347.403 382.706 347.403C382.704 347.401 382.702 347.399 382.7 347.398H363.506V340.587C363.506 340.392 363.348 340.233 363.152 340.233ZM407.316 329.834C407.121 329.819 406.951 329.966 406.937 330.161C406.697 333.361 400.181 337.18 394.05 340.243C394.052 340.25 394.051 340.258 394.052 340.265C393.929 340.32 393.842 340.443 393.842 340.587V348.107H421.002C421.683 348.107 422.237 348.662 422.237 349.344C422.237 349.54 422.396 349.698 422.591 349.698C422.787 349.698 422.945 349.54 422.945 349.344C422.945 348.271 422.074 347.398 421.002 347.398H394.55V340.787C400.906 337.605 407.378 333.744 407.642 330.214C407.657 330.019 407.511 329.849 407.316 329.834ZM387.875 343.202C385.628 344.256 383.848 345.099 382.848 345.713C382.459 345.951 382.228 346.368 382.228 346.831C382.228 347.027 382.386 347.186 382.582 347.186C382.777 347.186 382.936 347.027 382.936 346.831C382.936 346.618 383.041 346.426 383.217 346.318C384.163 345.738 385.95 344.889 388.044 343.907C388.043 343.875 388.049 343.842 388.049 343.81C388.042 343.657 388.042 343.505 388.052 343.353C387.994 343.302 387.927 343.259 387.875 343.202ZM414.177 332.224L414.112 332.233C413.922 332.277 413.804 332.468 413.848 332.659L414.118 333.813C414.395 335.001 414.046 336.226 413.185 337.087C413.047 337.226 413.047 337.45 413.185 337.589C413.254 337.658 413.345 337.693 413.436 337.693C413.526 337.693 413.617 337.658 413.686 337.589C414.721 336.553 415.14 335.081 414.807 333.652L414.538 332.497C414.493 332.307 414.308 332.19 414.112 332.233L414.177 332.224ZM383.133 332.224L383.069 332.233C382.879 332.277 382.761 332.468 382.805 332.659L383.074 333.813C383.352 335.001 383.003 336.226 382.142 337.087C382.003 337.226 382.003 337.45 382.142 337.589C382.211 337.658 382.301 337.693 382.392 337.693C382.483 337.693 382.573 337.658 382.643 337.589C383.678 336.553 384.096 335.081 383.764 333.652L383.495 332.497C383.449 332.307 383.265 332.19 383.069 332.233L383.133 332.224ZM437.624 250.376L436.323 259.253C434.609 269.521 426.056 320.8 426.056 321.302C426.056 321.497 426.214 321.656 426.41 321.656C426.605 321.656 426.764 321.497 426.764 321.302C426.836 320.5 433.505 280.434 437.022 259.364L437.023 259.357L438.324 250.48C438.353 250.286 438.219 250.106 438.026 250.077C437.828 250.047 437.653 250.183 437.624 250.376ZM405.662 250.366L404.337 257.832C404.337 257.835 404.337 257.836 404.337 257.837L394.438 318.372C394.406 318.565 394.537 318.748 394.729 318.779C394.749 318.783 394.768 318.784 394.787 318.784C394.958 318.784 395.108 318.661 395.136 318.487L405.035 257.952L406.359 250.49C406.393 250.298 406.265 250.113 406.072 250.079C405.879 250.044 405.697 250.174 405.662 250.366ZM445.5 233.106L422.86 233.722C416.061 233.907 410.376 239.342 409.637 246.366L408.472 257.427C408.382 257.485 408.318 257.584 408.308 257.699L407.718 264.6L407.642 265.32C407.638 265.356 407.639 265.391 407.646 265.425L406.042 284.167C406.026 284.362 406.17 284.535 406.365 284.551C406.375 284.552 406.385 284.552 406.395 284.552C406.577 284.552 406.732 284.413 406.748 284.228L408.479 264.003L410.327 246.445C411.029 239.778 416.425 234.619 422.878 234.443L445.518 233.828C445.709 233.822 445.861 233.657 445.856 233.457C445.851 233.258 445.658 233.111 445.5 233.106ZM406.507 218.009C406.324 218.009 406.17 218.149 406.155 218.333L404.868 233.934L401.831 233.887C401.747 233.883 401.657 233.923 401.588 233.988L393.594 233.841C384.868 233.676 377.498 240.384 376.822 249.105C376.807 249.3 376.953 249.471 377.148 249.486C377.157 249.487 377.166 249.487 377.176 249.487C377.359 249.487 377.514 249.346 377.528 249.16C378.166 240.912 385.06 234.547 393.285 234.547C393.384 234.547 393.482 234.548 393.581 234.55L405.175 234.765C405.269 234.771 405.366 234.726 405.436 234.653L412.593 234.767H412.598C412.791 234.767 412.949 234.612 412.952 234.418C412.955 234.223 412.799 234.061 412.604 234.058L405.577 233.946L406.831 218.718H468.574C468.769 218.718 468.928 218.559 468.928 218.363C468.928 218.167 468.769 218.009 468.574 218.009H406.507Z" fill="black"/>
<path fill-rule="evenodd" clip-rule="evenodd" d="M435.676 146.607C438.963 149.352 446.999 134.716 446.999 134.716C446.999 134.716 468.366 132.337 485.167 158.682C485.167 158.682 474.758 167.829 464.713 169.477C464.713 169.477 469.279 217.847 468.183 221.139C466.852 222.24 465.696 222.809 464.713 222.848C442.127 223.737 418.783 221.685 406.422 222.848C402.829 223.186 400.974 221.196 400.856 216.877L404.082 168.013C404.082 168.013 393.901 166.914 383.309 161.976C383.309 161.976 392.76 134.35 426.91 135.082C426.91 135.082 432.389 143.864 435.676 146.607Z" fill="#83BB9E"/>
<path fill-rule="evenodd" clip-rule="evenodd" d="M468.183 221.14C468.331 221.14 468.469 221.288 468.519 221.14C469.626 217.813 465.252 171.274 465.066 169.441C465.059 169.39 464.516 164.782 462.071 159.27C461.991 159.091 461.781 159.01 461.603 159.089C461.425 159.169 461.344 159.379 461.424 159.557C463.823 164.965 464.356 169.472 464.362 169.516C465.938 184.989 468.695 218.593 467.848 221.14C467.785 221.326 467.886 221.078 468.071 221.14C468.109 221.153 468.146 221.14 468.183 221.14Z" fill="black"/>
<path fill-rule="evenodd" clip-rule="evenodd" d="M450.573 158.543C449.547 156.858 442.365 150.378 441.853 151.834C441.341 153.289 447.923 159.884 447.923 159.884C447.923 159.884 437.493 151.063 435.953 152.433C434.415 153.803 446.042 162.711 446.042 162.711L446.023 162.698C445.48 162.324 433.111 153.839 432.133 155.43C431.133 157.058 444.418 165.452 444.418 165.452C444.418 165.452 433.218 159.114 432.191 160.484C431.166 161.854 442.649 168.869 442.649 168.869C441.623 169.896 434.871 168.534 434.871 168.534C432.705 169.448 438.82 172.833 443.836 173.632C447.598 174.232 454.182 184.758 455.097 185.869C460.119 191.969 475.485 209.524 486.401 210.06C499.619 210.708 492.921 175.979 483.504 160.043L481.508 161.545C478.224 164.045 473.245 167.358 466.798 169.03L466.797 169.031L472.146 180.844L464.167 174.444C464.167 174.444 456.045 168.62 455.019 165.623C453.993 162.625 450.573 158.543 450.573 158.543ZM385.141 162.793C385.141 162.793 371.877 186.605 382.479 208.702C382.479 208.702 399.236 215.04 431.381 189.175C431.381 189.175 442.496 191.23 448.139 183.008L423.687 184.721C423.687 184.721 396.842 191.953 394.961 191.592C394.961 191.592 400.38 185.22 404.082 168.013C404.082 168.013 391.566 165.875 385.141 162.793ZM431.988 128.678V135.082H426.91C426.91 135.082 432.39 143.863 435.677 146.607C438.963 149.352 446.999 134.716 446.999 134.716H441.667V128.678H431.988Z" fill="#C3986A"/>
<path fill-rule="evenodd" clip-rule="evenodd" d="M402.825 190.061L404.435 167.999C404.428 167.824 404.295 167.679 404.12 167.661C404.019 167.65 394.063 166.532 383.755 161.792C384.917 158.821 395.292 134.859 426.712 135.432C427.501 136.683 432.365 144.305 435.45 146.88C435.893 147.249 436.424 147.379 437.029 147.265C440.873 146.537 447.048 135.362 447.309 134.887C447.404 134.715 447.341 134.5 447.169 134.405C446.999 134.311 446.783 134.373 446.689 134.545C446.627 134.658 440.416 145.903 436.898 146.568C436.507 146.641 436.18 146.566 435.903 146.335C432.697 143.659 427.265 134.981 427.21 134.894C427.147 134.792 427.037 134.73 426.918 134.727C409.157 134.35 398.149 141.738 392.05 148.006C385.439 154.8 382.997 161.791 382.973 161.86C382.915 162.032 382.995 162.221 383.159 162.296C392.668 166.731 401.961 168.098 403.741 168.328L402.145 190.104C402.145 190.303 402.282 190.159 402.471 190.159" fill="black"/>
<path fill-rule="evenodd" clip-rule="evenodd" d="M472.146 181.199C472.222 181.199 472.299 181.174 472.363 181.125C472.492 181.024 472.536 180.847 472.469 180.698L467.119 168.884C467.038 168.706 466.83 168.627 466.651 168.708C466.473 168.789 466.394 168.999 466.474 169.177L471.213 179.642L464.388 174.168C464.292 174.099 456.331 168.364 455.353 165.508C454.318 162.483 450.986 158.483 450.844 158.315C449.963 156.861 443.782 151.08 442.094 151.273C441.818 151.302 441.608 151.464 441.519 151.716C441.215 152.58 442.677 154.611 444.302 156.512C440.961 153.954 436.822 151.184 435.718 152.168C435.593 152.279 435.447 152.48 435.46 152.809C435.503 153.987 438.071 156.515 440.651 158.766C437.338 156.719 433.575 154.644 432.344 154.904C432.055 154.965 431.905 155.124 431.831 155.245C431.436 155.887 431.824 157.113 437.693 161.34C437.997 161.558 438.302 161.776 438.606 161.989C433.404 159.518 432.188 159.899 431.908 160.271C431.824 160.384 431.736 160.576 431.789 160.855C432.13 162.629 439.372 167.257 441.9 168.824C440.576 169.084 437.256 168.654 434.94 168.187C434.75 168.147 434.562 168.273 434.523 168.465C434.485 168.657 434.609 168.844 434.801 168.883C435.959 169.117 441.794 170.226 442.899 169.12C442.975 169.043 443.013 168.935 443 168.827C442.987 168.72 442.925 168.623 442.833 168.567C436.987 164.995 432.343 161.459 432.481 160.683C433.001 160.129 438.388 162.447 444.243 165.761C444.41 165.854 444.622 165.799 444.721 165.633C444.82 165.468 444.768 165.255 444.606 165.152C437.71 160.795 432.135 156.428 432.434 155.616C433.077 155.051 439.216 158.432 445.841 163.002C445.999 163.112 446.215 163.075 446.329 162.919C446.441 162.763 446.409 162.546 446.256 162.43C442.384 159.462 436.22 154.22 436.167 152.783C436.164 152.719 436.18 152.706 436.188 152.698C436.824 152.139 441.398 154.831 447.694 160.155C447.84 160.278 448.055 160.264 448.184 160.125C448.312 159.985 448.307 159.768 448.173 159.634C445.083 156.538 441.916 152.721 442.186 151.952C442.898 151.723 448.938 156.539 450.271 158.727C450.336 158.811 453.692 162.839 454.684 165.738C455.735 168.807 463.625 174.493 463.961 174.733L471.925 181.121C471.99 181.173 472.067 181.199 472.146 181.199Z" fill="black"/>
<path fill-rule="evenodd" clip-rule="evenodd" d="M486.402 210.414C486.589 210.414 486.746 210.267 486.755 210.077C486.764 209.882 486.614 209.715 486.419 209.705C475.553 209.172 459.906 191.153 455.37 185.644C455.245 185.493 455.022 185.472 454.871 185.596C454.721 185.72 454.7 185.944 454.823 186.095C472.457 207.511 482.769 210.236 486.384 210.414C486.39 210.414 486.396 210.414 486.402 210.414Z" fill="black"/>
<path fill-rule="evenodd" clip-rule="evenodd" d="M482.81 191.946C482.877 191.946 482.946 191.927 483.007 191.886C483.169 191.777 483.212 191.556 483.103 191.394C478.926 185.174 472.414 180.599 472.348 180.553C472.187 180.441 471.967 180.481 471.856 180.642C471.744 180.803 471.783 181.023 471.944 181.135C472.008 181.18 478.415 185.683 482.515 191.79C482.584 191.891 482.696 191.946 482.81 191.946Z" fill="black"/>
<path fill-rule="evenodd" clip-rule="evenodd" d="M434.395 189.744C438.181 189.744 444.578 188.822 448.431 183.209C448.541 183.048 448.5 182.827 448.339 182.716C448.178 182.605 447.958 182.646 447.847 182.807C442.402 190.74 431.555 188.846 431.446 188.827C431.257 188.788 431.069 188.917 431.034 189.111C430.998 189.303 431.125 189.488 431.317 189.524C431.354 189.531 432.572 189.744 434.395 189.744Z" fill="black"/>
<path fill-rule="evenodd" clip-rule="evenodd" d="M394.961 191.947C395.061 191.947 395.16 191.904 395.23 191.822C395.454 191.559 400.749 185.186 404.428 168.087C404.449 167.993 404.429 167.895 404.376 167.814C404.322 167.734 404.237 167.68 404.142 167.663C404.017 167.642 391.6 165.498 385.294 162.474C385.118 162.389 384.906 162.464 384.821 162.64C384.737 162.817 384.812 163.028 384.988 163.113C390.768 165.885 401.543 167.916 403.659 168.298C400.025 184.924 394.744 191.299 394.691 191.362C394.565 191.511 394.583 191.735 394.732 191.862C394.799 191.919 394.88 191.947 394.961 191.947Z" fill="black"/>
<path fill-rule="evenodd" clip-rule="evenodd" d="M389.793 196.844C389.898 196.844 390.002 196.797 390.072 196.708C392.928 193.055 395.1 191.919 395.122 191.908C395.296 191.819 395.365 191.605 395.276 191.43C395.188 191.257 394.976 191.187 394.8 191.276C394.706 191.324 392.466 192.496 389.515 196.271C389.395 196.425 389.422 196.648 389.575 196.769C389.64 196.819 389.717 196.844 389.793 196.844Z" fill="black"/>
<path fill-rule="evenodd" clip-rule="evenodd" d="M417.945 155.553L427.791 181.936L427.833 181.925H455.097V182.634L429.713 187.085H391.002L376.787 155.553H417.945Z" fill="#F1EFEF"/>
<path fill-rule="evenodd" clip-rule="evenodd" d="M429.595 186.091C429.615 186.091 429.635 186.089 429.654 186.086L455.008 182.09C455.201 182.058 455.331 181.875 455.298 181.682C455.266 181.489 455.085 181.359 454.891 181.391L429.829 185.338L418.421 155.18C418.371 155.04 418.238 154.946 418.088 154.946H376.819C376.698 154.946 376.586 155.007 376.521 155.108C376.456 155.209 376.447 155.337 376.497 155.446L387.336 179.49C387.416 179.668 387.628 179.748 387.804 179.667C387.982 179.587 388.061 179.377 387.981 179.198L377.367 155.655H417.839L429.262 185.856C429.313 185.999 429.448 186.091 429.595 186.091Z" fill="black"/>
<path fill-rule="evenodd" clip-rule="evenodd" d="M421.491 116.177C421.201 124.206 429.147 130.868 436.864 130.868C444.58 130.868 452.407 125.108 452.743 116.903C453.072 108.875 447.275 99.8646 441.481 99.0868C429.68 97.5016 421.844 106.352 421.491 116.177Z" fill="black"/>
<path fill-rule="evenodd" clip-rule="evenodd" d="M436.864 130.159C443.927 130.159 451.71 124.821 452.036 116.874C452.346 109.308 446.872 100.526 441.387 99.7893C440.504 99.6709 439.623 99.6106 438.768 99.6106C428.394 99.6106 422.488 108.159 422.198 116.202C422.081 119.451 423.413 122.69 425.948 125.324C428.864 128.351 432.944 130.159 436.864 130.159Z" fill="#C3986A"/>
<path fill-rule="evenodd" clip-rule="evenodd" d="M437.465 94.2023C431.45 94.2023 426.572 90.1753 426.572 85.2082C426.572 80.2412 431.45 76.2142 437.465 76.2142C443.481 76.2142 448.358 80.2412 448.358 85.2082C448.358 90.1753 443.481 94.2023 437.465 94.2023ZM436.552 94.2023C467.736 94.2023 455.455 114.864 469.445 114.864C483.435 114.864 483.542 131.379 483.542 131.379H473.29C473.29 131.379 472.649 124.907 472.542 125.228C472.435 125.549 471.902 131.379 471.902 131.379H444.676C444.676 131.379 443.773 130.541 444.332 128.878L447.155 127.052C447.155 127.052 445.203 121.233 447.659 118.558C450.115 115.884 447.445 110.571 447.445 110.571C447.445 110.571 440.717 111.559 436.552 100.527C436.552 100.527 434.188 107.959 423.144 109.854C422.562 111.413 421.888 113.101 421.888 114.864C421.888 121.607 423.727 126.091 431.063 129.677V131.215L388.388 131.379C388.388 131.379 387.854 113.781 403.126 113.781C418.397 113.781 405.368 94.2023 436.552 94.2023Z" fill="#372310"/>
<path fill-rule="evenodd" clip-rule="evenodd" d="M431.126 123.35C431.007 123.506 431.038 123.729 431.194 123.847C432.688 124.984 434.019 125.355 435.121 125.355C437.175 125.355 438.429 124.064 438.448 124.044C438.582 123.902 438.576 123.678 438.435 123.544C438.293 123.409 438.069 123.415 437.935 123.556C437.832 123.663 435.385 126.146 431.622 123.283C431.467 123.164 431.244 123.194 431.126 123.35ZM434.232 113.98C433.934 114.344 431.353 117.589 432.196 119.367C432.528 120.068 433.305 120.424 434.506 120.424C435.707 120.424 436.484 120.068 436.816 119.368C437.658 117.59 435.077 114.344 434.779 113.98C434.646 113.815 434.366 113.815 434.232 113.98ZM434.506 114.781C435.322 115.873 436.668 118.026 436.176 119.064C435.971 119.496 435.409 119.715 434.506 119.715C433.602 119.715 433.04 119.496 432.835 119.064C432.343 118.026 433.69 115.873 434.506 114.781ZM439.383 112.965C438.917 112.965 438.539 113.52 438.539 114.204C438.539 114.888 438.917 115.443 439.383 115.443C439.849 115.443 440.226 114.888 440.226 114.204C440.226 113.52 439.849 112.965 439.383 112.965ZM429.566 112.965C429.099 112.965 428.722 113.52 428.722 114.204C428.722 114.888 429.099 115.443 429.566 115.443C430.031 115.443 430.409 114.888 430.409 114.204C430.409 113.52 430.031 112.965 429.566 112.965ZM438.539 110.245C438.344 110.245 438.185 110.404 438.185 110.599C438.185 110.795 438.344 110.954 438.539 110.954C440.325 110.954 441.371 111.967 441.382 111.978C441.451 112.046 441.541 112.08 441.631 112.08C441.722 112.08 441.813 112.045 441.882 111.975C442.02 111.837 442.02 111.613 441.882 111.475C441.831 111.425 440.63 110.245 438.539 110.245ZM430.409 110.245C428.318 110.245 427.117 111.425 427.066 111.475C426.928 111.613 426.928 111.837 427.066 111.975C427.135 112.045 427.226 112.08 427.317 112.08C427.407 112.08 427.497 112.046 427.566 111.978C427.576 111.967 428.623 110.954 430.409 110.954C430.604 110.954 430.763 110.795 430.763 110.599C430.763 110.404 430.604 110.245 430.409 110.245Z" fill="black"/>
<path fill-rule="evenodd" clip-rule="evenodd" d="M441.08 116.626C439.712 116.626 438.602 117.261 438.602 118.044C438.602 118.827 439.712 119.462 441.08 119.462C442.448 119.462 443.556 118.827 443.556 118.044C443.556 117.261 442.448 116.626 441.08 116.626ZM428.341 116.626C426.973 116.626 425.864 117.261 425.864 118.044C425.864 118.827 426.973 119.462 428.341 119.462C429.708 119.462 430.818 118.827 430.818 118.044C430.818 117.261 429.708 116.626 428.341 116.626Z" fill="#E2A2B5"/>
<path fill-rule="evenodd" clip-rule="evenodd" d="M252.041 346.725C247.797 344.119 228.229 336.832 227.784 330.897C227.093 321.686 227.117 306.959 227.239 296.367C221.539 296.969 214.976 297.596 207.997 298.138L215.896 331.039C216.278 334.007 216.793 334.291 213.571 341.025C213.263 341.67 213.066 342.257 212.954 342.797C205.859 339.424 197.037 334.86 196.74 330.897C196.05 321.686 196.073 306.959 196.195 296.367C190.495 296.969 183.932 297.596 176.952 298.138L184.852 331.039C185.234 334.007 185.749 334.291 182.527 341.025C179.474 347.404 186.943 348.413 186.943 348.413L220.49 348.498C220.624 348.498 220.752 348.47 220.868 348.421L251.534 348.498C252.063 348.499 252.493 348.07 252.493 347.54C252.493 347.207 252.325 346.898 252.041 346.725Z" fill="#C3986A"/>
<path fill-rule="evenodd" clip-rule="evenodd" d="M135.455 219.072C135.455 219.072 128.419 245.714 131.554 254.787C134.378 262.959 140.332 268.634 167.357 266.395C167.357 266.395 177.62 321.513 177.62 322.011C177.62 322.437 194.439 320.68 199.325 320.161C200.056 320.083 200.59 319.433 200.527 318.699L195.369 264.818L199.344 264.984L209.243 319.139C209.357 319.842 209.996 320.335 210.704 320.267L231.312 318.292C232.045 318.222 232.587 317.575 232.53 316.84L226.854 249.842C226.193 241.295 218.997 234.746 210.442 234.905L198.847 235.12L197.522 219.072H135.455Z" fill="#F9E272"/>
<path fill-rule="evenodd" clip-rule="evenodd" d="M240.877 340.942C241.073 340.942 241.231 341.101 241.231 341.296V348.816H222.762C223.042 349.153 223.217 349.581 223.217 350.053V350.33C223.217 350.526 223.059 350.685 222.863 350.685C222.668 350.685 222.509 350.526 222.509 350.33V350.053C222.509 349.371 221.955 348.816 221.275 348.816H216.051C215.855 348.816 215.697 348.658 215.697 348.461C215.697 348.265 215.855 348.107 216.051 348.107H221.275C221.291 348.107 221.307 348.112 221.324 348.112C221.325 348.11 221.328 348.108 221.33 348.107H240.523V341.296C240.523 341.101 240.681 340.942 240.877 340.942ZM196.713 330.543C196.908 330.528 197.079 330.675 197.093 330.87C197.333 334.07 203.849 337.889 209.979 340.952C209.978 340.959 209.979 340.967 209.977 340.974C210.1 341.029 210.188 341.152 210.188 341.296V348.816H183.027C182.346 348.816 181.792 349.371 181.792 350.053C181.792 350.248 181.634 350.407 181.438 350.407C181.243 350.407 181.084 350.248 181.084 350.053C181.084 348.98 181.956 348.107 183.027 348.107H209.48V341.496C203.123 338.314 196.652 334.453 196.387 330.923C196.373 330.728 196.519 330.558 196.713 330.543ZM216.155 343.911C218.402 344.965 220.182 345.807 221.182 346.422C221.57 346.66 221.802 347.077 221.802 347.54C221.802 347.736 221.644 347.895 221.448 347.895C221.253 347.895 221.094 347.736 221.094 347.54C221.094 347.327 220.989 347.135 220.812 347.027C219.867 346.447 218.08 345.598 215.986 344.616C215.986 344.584 215.981 344.551 215.981 344.519C215.987 344.366 215.987 344.214 215.977 344.062C216.035 344.011 216.103 343.968 216.155 343.911ZM189.853 332.933L189.917 332.942C190.108 332.986 190.225 333.177 190.181 333.368L189.912 334.522C189.635 335.71 189.983 336.935 190.844 337.796C190.982 337.935 190.982 338.159 190.844 338.298C190.775 338.367 190.684 338.402 190.594 338.402C190.503 338.402 190.413 338.367 190.343 338.298C189.309 337.262 188.89 335.79 189.222 334.361L189.491 333.206C189.537 333.016 189.722 332.899 189.917 332.942L189.853 332.933ZM220.896 332.933L220.961 332.942C221.151 332.986 221.269 333.177 221.225 333.368L220.955 334.522C220.678 335.71 221.026 336.935 221.887 337.796C222.026 337.935 222.026 338.159 221.887 338.298C221.819 338.367 221.728 338.402 221.638 338.402C221.547 338.402 221.456 338.367 221.387 338.298C220.352 337.262 219.933 335.79 220.265 334.361L220.535 333.206C220.58 333.016 220.765 332.899 220.961 332.942L220.896 332.933ZM166.405 251.085L167.707 259.962L167.706 259.956C169.42 270.23 177.974 321.509 177.974 322.011C177.974 322.206 177.815 322.365 177.62 322.365C177.424 322.365 177.266 322.206 177.266 322.011C177.193 321.209 170.524 281.143 167.008 260.073L167.007 260.066L165.705 251.189C165.677 250.995 165.811 250.815 166.004 250.786C166.201 250.756 166.377 250.892 166.405 251.085ZM198.368 251.075L199.692 258.541C199.693 258.545 199.693 258.545 199.693 258.546L209.592 319.081C209.624 319.274 209.493 319.457 209.3 319.488C209.28 319.492 209.261 319.493 209.242 319.493C209.072 319.493 208.921 319.37 208.893 319.196L198.994 258.661L198.994 258.66L197.67 251.199C197.637 251.007 197.765 250.822 197.957 250.788C198.151 250.753 198.333 250.883 198.368 251.075ZM158.53 233.815L181.17 234.431C187.968 234.616 193.653 240.051 194.392 247.075L195.558 258.136C195.648 258.194 195.712 258.293 195.721 258.408L196.311 265.306L196.388 266.029C196.392 266.065 196.39 266.1 196.384 266.134L197.987 284.876C198.004 285.071 197.859 285.244 197.665 285.26C197.655 285.261 197.644 285.261 197.634 285.261C197.452 285.261 197.297 285.122 197.282 284.937L195.551 264.712L193.703 247.154C193.001 240.487 187.605 235.327 181.152 235.152L158.512 234.536C158.32 234.531 158.169 234.366 158.174 234.166C158.179 233.967 158.372 233.82 158.53 233.815ZM202.198 234.596C202.364 234.588 202.554 234.749 202.558 234.944C202.561 235.14 202.405 235.302 202.209 235.304L191.437 235.476H191.431C191.239 235.476 191.08 235.321 191.077 235.127C191.074 234.932 191.23 234.77 191.426 234.767L202.198 234.596Z" fill="black"/>
<path fill-rule="evenodd" clip-rule="evenodd" d="M226.502 249.869C225.864 241.621 218.971 235.257 210.746 235.257C210.647 235.257 210.548 235.257 210.449 235.259L198.855 235.474C198.688 235.484 198.511 235.337 198.495 235.15L197.199 219.427H135.455C135.26 219.427 135.102 219.268 135.102 219.072C135.102 218.876 135.26 218.718 135.455 218.718H197.523C197.706 218.718 197.86 218.858 197.875 219.042L199.172 234.76L210.436 234.55C219.162 234.385 226.533 241.093 227.208 249.814C227.223 250.01 227.077 250.18 226.882 250.195C226.873 250.196 226.864 250.196 226.855 250.196C226.671 250.196 226.516 250.055 226.502 249.869Z" fill="black"/>
<path fill-rule="evenodd" clip-rule="evenodd" d="M252.319 348.461H247.095V343.073C247.095 342.716 246.877 342.393 246.544 342.261L242.073 340.483C241.499 340.256 240.877 340.678 240.877 341.297V348.461H216.051V343.073C216.051 342.716 215.833 342.393 215.5 342.261L211.029 340.483C210.455 340.256 209.833 340.678 209.833 341.297V348.461H183.027C182.149 348.461 181.438 349.174 181.438 350.052V350.33C181.438 351.209 182.149 351.921 183.027 351.921H252.319C253.196 351.921 253.908 351.209 253.908 350.33V350.052C253.908 349.174 253.196 348.461 252.319 348.461Z" fill="#94B1EB"/>
<path fill-rule="evenodd" clip-rule="evenodd" d="M211.813 233.494C213.243 233.782 215.223 233.702 217.612 233.635C220.355 233.559 222.834 233.769 224.586 233.658C224.561 235.467 224.517 237.286 224.422 239.128C225.892 242.301 228.348 257.166 226.911 257.349C225.379 257.544 223.194 249.029 223.194 249.029C223.194 249.029 224.875 260.708 222.89 261.078C221.017 261.425 220.098 250.606 220.001 249.385L219.999 249.369L220.003 249.423C220.109 250.918 220.916 263.21 218.787 264.132L218.703 264.162C216.933 264.662 216.579 256.32 216.513 252.023L216.513 252.044L216.51 252.211C216.458 255.653 216.135 261.286 214.585 261.931L214.498 261.962C212.152 262.634 213.855 238.312 211.183 245.85C208.511 253.387 206.656 252.477 206.656 252.477C204.771 250.539 209.044 242.107 210.796 238.869C210.795 238.869 211.568 237.064 211.813 233.494ZM171.895 128.819V135.426L178.23 136.221C178.01 136.275 177.871 136.319 177.871 136.319C165.881 142.054 157.997 137.764 155.808 136.268L162.397 135.426V128.819H171.895ZM128.453 97.2428C133.675 93.1243 139.757 94.2324 140.062 94.2912L140.074 94.2935C140.074 94.2935 141.738 95.3478 136.513 96.7636C130.664 98.3481 131.303 100.098 131.303 100.098C131.303 100.098 134.723 98.156 134.951 101.468C134.951 101.468 137.088 102.496 136.019 104.552C136.019 104.552 137.772 106.036 136.019 109.348C136.019 109.348 133.811 111.86 134.038 108.32C134.038 108.32 133.124 110.849 130.591 116.058C128.589 120.174 125.022 127.792 122.598 132.991C118.913 132.279 111.712 130.716 107.181 128.621C113.127 118.776 124.557 100.316 128.453 97.2428Z" fill="#C3986A"/>
<path fill-rule="evenodd" clip-rule="evenodd" d="M166.04 145.697C155.796 145.519 152.564 142.862 150.767 138.031C150.767 138.031 141.838 132.414 121.769 143.514L122.815 140.062L123.063 139.035C119.455 140.584 105.218 134.545 102.075 132.162C97.162 138.821 85.2966 157.371 96.4727 168.227C110.271 181.631 133.868 170.39 133.868 170.39C133.868 170.39 126.368 205.464 135.986 219.077L135.983 219.121C136.2 219.052 136.427 219.018 136.654 219.038C167.261 221.686 193.387 218.198 197.766 219.328C201.521 219.328 200.61 216.685 200.71 215.138C201.195 207.64 199.664 194.922 198.287 185.401C198.287 185.401 205.186 217.864 210.622 227.498C211.727 227.736 223.666 227.414 226.523 227.679C226.652 227.396 228.157 223.944 227.556 219.33C226.929 214.513 238.114 149.996 181.718 137.644C182.103 140.109 177.102 145.89 166.04 145.697Z" fill="#E2A2B5"/>
<path fill-rule="evenodd" clip-rule="evenodd" d="M205.368 213.52C206.598 212.518 208.086 211.948 209.298 212.665C211.247 213.816 213.232 218.077 212.083 220.028C210.985 221.893 209.61 220.226 207.523 220.199C206.798 218.139 206.074 215.875 205.368 213.52ZM219.472 211.832C220.287 209.717 223.655 211.607 225.876 211.179C226.667 211.025 227.34 211.003 227.925 211.065C227.819 213.521 227.679 215.538 227.597 217C227.086 216.941 226.535 216.923 225.95 217.058C222.386 217.885 218.656 213.945 219.472 211.832ZM173.02 208.822C175.282 208.822 177.002 207.222 178.272 209.097C180.327 212.129 175.453 216.918 173.191 216.918C170.929 216.918 167.712 215.722 167.712 213.455C167.712 211.189 170.758 208.822 173.02 208.822ZM136.985 206.298C139.247 206.298 138.33 208.526 139.6 210.402C141.655 213.434 139.808 215.904 137.546 215.904C136.354 215.904 134.902 215.569 133.79 214.924C133.263 213.591 132.827 212.159 132.47 210.652C133.294 208.57 135.253 206.298 136.985 206.298ZM190.829 205.335C193.091 205.335 192.174 207.563 193.444 209.439C195.499 212.471 193.652 214.941 191.39 214.941C189.128 214.941 185.91 213.744 185.91 211.478C185.91 209.212 188.566 205.335 190.829 205.335ZM152.599 203.828C154.861 203.828 156.581 202.228 157.851 204.103C159.906 207.135 155.034 211.924 152.771 211.924C150.509 211.924 147.292 210.728 147.292 208.461C147.292 206.195 150.337 203.828 152.599 203.828ZM200.957 197.008C202.286 195.434 204.367 194.141 205.967 195.086C207.916 196.237 209.9 200.498 208.751 202.449C207.602 204.402 206.151 202.479 203.894 202.622C203.307 202.66 202.79 202.61 202.331 202.506C201.841 200.599 201.379 198.747 200.957 197.008ZM217.556 199.722C217.071 196.09 223.567 193.987 225.59 194.999C226.347 195.378 227.147 195.965 227.802 196.659C227.917 198.37 227.989 200.027 228.028 201.617C226.476 202.807 223.747 203.127 222.133 202.319C220.11 201.306 217.857 201.969 217.556 199.722ZM168.531 194.917C169.68 192.964 172.343 190.796 174.293 191.947C176.241 193.098 178.225 197.358 177.076 199.311C175.927 201.263 174.477 199.339 172.22 199.484C168.569 199.717 167.382 196.868 168.531 194.917ZM132.18 192.648C132.996 190.534 136.363 192.425 138.584 191.995C143.541 191.037 144.238 194.797 143.422 196.911C142.606 199.024 140.862 197.364 138.658 197.875C135.094 198.702 131.364 194.762 132.18 192.648ZM189.514 186.008C191.776 186.008 190.859 188.237 192.129 190.111C194.185 193.144 192.337 195.614 190.075 195.614C187.814 195.614 184.596 194.417 184.596 192.15C184.596 189.885 187.252 186.008 189.514 186.008ZM149.669 191.993C149.183 188.361 155.678 186.257 157.702 187.27C159.726 188.282 162.071 190.793 161.059 192.82C160.049 194.847 156.268 195.602 154.245 194.589C152.222 193.577 149.969 194.239 149.669 191.993ZM198.251 181.679C199.067 179.565 202.433 181.454 204.655 181.025C209.612 180.067 210.308 183.827 209.493 185.941C208.677 188.055 206.933 186.394 204.729 186.905C201.164 187.732 197.435 183.792 198.251 181.679ZM133.794 179.399C138.751 178.44 139.447 182.201 138.631 184.315C137.816 186.428 136.072 184.767 133.869 185.279C133.13 185.45 132.388 185.409 131.677 185.23C131.879 183.151 132.115 181.195 132.355 179.427C132.861 179.476 133.351 179.485 133.794 179.399ZM224.28 176.627C224.938 178.787 225.493 180.95 225.951 183.094C224.81 184.233 223.462 185.023 222.544 185.023C220.282 185.023 217.065 183.826 217.065 181.56C217.065 179.294 220.11 176.927 222.372 176.927C223.057 176.927 223.691 176.78 224.28 176.627ZM149.423 174.753C151.685 174.753 153.404 173.152 154.675 175.027C156.73 178.06 151.857 182.849 149.595 182.849C147.333 182.849 144.116 181.653 144.116 179.386C144.116 177.12 147.161 174.753 149.423 174.753ZM167.447 171.051C169.709 171.051 168.792 173.279 170.062 175.154C172.118 178.186 170.27 180.656 168.009 180.656C165.746 180.656 162.53 179.459 162.53 177.193C162.53 174.927 165.185 171.051 167.447 171.051ZM183.062 168.581C185.324 168.581 187.043 166.98 188.314 168.855C190.368 171.887 185.496 176.677 183.233 176.677C180.971 176.677 177.754 175.48 177.754 173.214C177.754 170.948 180.799 168.581 183.062 168.581ZM190.884 173.278C190.398 169.645 196.894 167.541 198.918 168.554C200.942 169.567 203.286 172.077 202.275 174.104C201.264 176.131 197.484 176.886 195.461 175.874C193.437 174.861 191.185 175.524 190.884 173.278ZM121.707 167.695C123.969 167.695 123.052 169.923 124.322 171.797C124.696 172.35 124.939 172.884 125.075 173.388C122.652 173.99 119.884 174.497 116.962 174.701C116.853 174.433 116.788 174.146 116.788 173.837C116.788 171.571 119.444 167.695 121.707 167.695ZM207.61 167.477C207.125 163.844 213.62 161.741 215.644 162.753C217.668 163.766 220.012 166.277 219.001 168.304C217.99 170.331 214.21 171.086 212.186 170.073C210.163 169.06 207.911 169.723 207.61 167.477ZM135.895 158.364C138.157 158.364 137.24 160.592 138.511 162.466C140.566 165.499 138.719 167.969 136.457 167.969C134.194 167.969 130.978 166.773 130.978 164.506C130.978 162.24 133.633 158.364 135.895 158.364ZM99.8607 157.54C102.123 157.54 101.205 159.768 102.476 161.643C104.531 164.676 102.684 167.146 100.422 167.146C98.1594 167.146 94.9421 165.948 94.9421 163.682C94.9421 161.416 97.5982 157.54 99.8607 157.54ZM145.627 160.632C146.776 158.68 149.439 156.512 151.388 157.662C153.336 158.814 155.321 163.074 154.172 165.026C153.023 166.978 151.573 165.056 149.315 165.199C145.664 165.433 144.478 162.583 145.627 160.632ZM115.475 155.07C117.737 155.07 119.456 153.469 120.727 155.344C122.782 158.377 117.909 163.166 115.647 163.166C113.384 163.166 110.168 161.97 110.168 159.703C110.168 157.437 113.213 155.07 115.475 155.07ZM163.217 152.52C164.553 150.691 167.418 148.798 169.243 150.137C171.068 151.475 171.175 155.336 169.838 157.164C168.503 158.992 168.775 161.328 166.515 161.247C162.859 161.117 161.88 154.348 163.217 152.52ZM184.156 149.444C186.418 149.444 188.138 147.843 189.408 149.718C191.463 152.751 186.59 157.54 184.327 157.54C182.066 157.54 178.849 156.344 178.849 154.077C178.849 151.811 181.894 149.444 184.156 149.444ZM195.468 151.525C196.284 149.411 199.651 151.301 201.872 150.872C206.83 149.914 207.525 153.674 206.71 155.788C205.895 157.901 204.15 156.241 201.946 156.752C198.382 157.579 194.653 153.639 195.468 151.525ZM129.985 141.191C132.246 141.191 131.329 143.42 132.6 145.295C134.655 148.327 132.808 150.797 130.546 150.797C128.283 150.797 125.066 149.6 125.066 147.334C125.066 145.068 127.722 141.191 129.985 141.191ZM145.68 144.209C149.137 140.523 151.9 143.161 152.475 145.353C153.051 147.544 150.666 147.222 149.179 148.93C146.775 151.693 141.448 150.689 140.872 148.498C140.298 146.305 144.131 145.86 145.68 144.209ZM96.4733 144.317C97.2885 142.204 100.656 144.093 102.877 143.663C107.835 142.706 108.531 146.465 107.715 148.579C106.899 150.693 105.155 149.033 102.951 149.544C99.3869 150.37 95.6573 146.431 96.4733 144.317ZM187.997 139.328C191.011 140.284 193.805 141.402 196.388 142.664C195.175 144.04 193.597 145.042 192.563 145.042C190.301 145.042 187.084 143.845 187.084 141.579C187.084 140.807 187.442 140.026 187.997 139.328ZM111.846 136.868C115.05 138.073 118.346 139.049 120.677 139.249C119.583 141.441 117.087 143.383 115.647 143.383C113.385 143.383 110.168 142.186 110.168 139.919C110.168 138.834 110.869 137.728 111.846 136.868ZM142.51 136.642C144.109 139.47 142.34 141.705 140.189 141.705C137.927 141.705 134.71 140.508 134.71 138.242C134.71 138.16 134.721 138.072 134.727 137.987C137.775 137.122 140.359 136.744 142.51 136.642Z" fill="#F1EFEF"/>
<path fill-rule="evenodd" clip-rule="evenodd" d="M227.135 227.804C226.744 227.327 211.862 227.765 210.622 227.498C210.622 227.498 209.109 227.844 209.313 230.91C209.517 233.976 212.714 233.771 217.612 233.635C222.508 233.499 226.574 234.278 227.135 232.506C227.697 230.734 227.526 228.281 227.135 227.804ZM135.818 219.168C134.958 219.554 133.339 220.39 134.039 224.001C134.969 228.79 198.664 225.997 200.921 224.001C200.921 224.001 202.106 220.883 200.921 218.681C199.741 216.488 169.677 221.896 136.654 219.038C136.369 219.014 136.079 219.051 135.818 219.168ZM123.932 133.241C120.575 132.632 109.733 130.496 105.186 127.543C105.186 127.543 100.674 129.753 101.475 131.561C102.278 133.37 121.731 141.909 123.736 138.493C124.709 136.837 125.021 135.595 125.085 134.753C125.14 134.024 124.65 133.371 123.932 133.241ZM166.04 145.697C177.102 145.89 182.103 140.109 181.718 137.644C181.334 135.18 177.871 136.318 177.871 136.318C163.635 143.127 155.187 135.804 155.187 135.804C153.612 134.844 152.478 134.956 151.706 135.37C150.773 135.87 150.397 137.038 150.767 138.031C152.564 142.861 155.796 145.519 166.04 145.697Z" fill="#83BB9E"/>
<path fill-rule="evenodd" clip-rule="evenodd" d="M219.857 248.937C220.032 248.921 220.222 249.067 220.237 249.264C220.423 251.686 221.219 263.805 218.691 264.519C218.66 264.529 218.627 264.533 218.595 264.533C218.44 264.533 218.299 264.431 218.255 264.275C218.201 264.086 218.311 263.891 218.499 263.837C219.946 263.428 219.974 255.101 219.532 249.318C219.517 249.123 219.662 248.952 219.857 248.937ZM216.383 249.21C216.576 249.197 216.742 249.359 216.748 249.555C216.806 251.561 216.971 261.606 214.487 262.318C214.455 262.328 214.422 262.333 214.39 262.333C214.235 262.333 214.094 262.231 214.05 262.076C213.996 261.887 214.105 261.692 214.292 261.638C215.728 261.225 216.178 254.336 216.04 249.575C216.034 249.379 216.188 249.216 216.383 249.21ZM223.437 248.995C223.842 251.814 224.999 261.043 222.847 261.442C222.826 261.446 222.803 261.448 222.782 261.448C222.615 261.448 222.466 261.329 222.435 261.158C222.399 260.966 222.527 260.781 222.718 260.746C223.706 260.562 223.524 254.574 222.736 249.096C222.708 248.902 222.842 248.723 223.035 248.695C223.227 248.67 223.408 248.8 223.437 248.995ZM224.298 238.436C225.763 240.094 228.227 254.997 227.401 257.196C227.253 257.587 227.019 257.695 226.849 257.717C226.833 257.719 226.818 257.72 226.803 257.72C226.627 257.72 226.476 257.59 226.452 257.411C226.43 257.235 226.54 257.073 226.706 257.025C227.607 255.859 225.116 240.432 223.769 238.905C223.639 238.759 223.653 238.535 223.799 238.406C223.944 238.274 224.169 238.288 224.298 238.436ZM211.193 245.533C211.378 245.598 211.474 245.801 211.408 245.985C209.661 250.915 208.204 252.395 207.288 252.769C207.076 252.855 206.895 252.883 206.753 252.883C206.553 252.883 206.428 252.829 206.393 252.812C206.218 252.725 206.146 252.513 206.231 252.337C206.314 252.167 206.512 252.095 206.686 252.167C206.751 252.178 208.389 252.386 210.742 245.748C210.807 245.563 211.012 245.465 211.193 245.533ZM221.572 231.777C221.551 231.957 221.398 232.09 221.221 232.09C221.207 232.09 221.193 232.089 221.178 232.088C220.985 232.065 220.846 231.889 220.868 231.694C220.971 230.824 220.908 228.725 220.879 227.921C220.167 227.923 219.446 227.925 218.749 227.929L218.749 231.287C218.749 231.482 218.59 231.641 218.395 231.641C218.199 231.641 218.041 231.482 218.041 231.287L218.041 227.932C217.88 227.933 217.721 227.934 217.564 227.935C216.834 227.938 216.154 227.941 215.527 227.943C215.496 228.601 215.422 230.459 215.54 231.701C215.558 231.897 215.416 232.07 215.222 232.088C215.21 232.089 215.199 232.09 215.187 232.09C215.007 232.09 214.853 231.953 214.836 231.769C214.714 230.488 214.785 228.65 214.819 227.945C214.021 227.947 213.325 227.946 212.735 227.94C212.503 228.216 211.76 229.526 212.246 231.657C212.29 231.847 212.171 232.037 211.98 232.081C211.954 232.087 211.927 232.09 211.902 232.09C211.74 232.09 211.594 231.979 211.557 231.814C211.152 230.039 211.509 228.68 211.905 227.928C211.306 227.916 210.883 227.895 210.649 227.863C210.419 227.959 209.508 228.498 209.666 230.886C209.68 231.082 209.532 231.251 209.337 231.264C209.329 231.265 209.321 231.265 209.312 231.265C209.128 231.265 208.973 231.121 208.96 230.934C208.739 227.603 210.469 227.169 210.543 227.153C210.594 227.14 210.645 227.141 210.697 227.151C211.192 227.259 214.43 227.242 217.561 227.226C222.669 227.198 225.109 227.216 226.296 227.307C226.629 226.47 227.687 223.43 227.228 219.56C226.895 219.472 225.638 219.298 221.251 219.683C221.059 219.69 220.884 219.555 220.868 219.361C220.85 219.166 220.994 218.994 221.189 218.977C227.603 218.413 227.803 218.972 227.889 219.21L227.891 219.219C227.893 219.223 227.894 219.228 227.896 219.233L227.889 219.21C227.897 219.233 227.903 219.257 227.906 219.281C227.906 219.281 227.906 219.283 227.907 219.284C228.416 223.198 227.451 226.274 227.021 227.399C227.244 227.447 227.35 227.507 227.409 227.579C227.532 227.731 227.51 227.955 227.359 228.078C227.232 228.182 227.057 228.184 226.929 228.093C226.858 228.07 226.729 228.05 226.551 228.032L226.523 228.034C226.492 228.034 226.46 228.03 226.428 228.021C226.064 227.991 225.542 227.969 224.914 227.954C225.246 228.711 225.802 230.31 225.388 231.829C225.345 231.986 225.203 232.09 225.047 232.09C225.016 232.09 224.985 232.086 224.953 232.077C224.766 232.026 224.654 231.831 224.706 231.642C225.127 230.091 224.327 228.345 224.124 227.938C223.357 227.927 222.489 227.923 221.589 227.922C221.618 228.759 221.679 230.858 221.572 231.777ZM186.72 219.166L186.71 219.085C187.252 223.935 187.122 224.065 186.983 224.205C186.914 224.274 186.823 224.308 186.732 224.308C186.642 224.308 186.551 224.274 186.482 224.205C186.38 224.102 186.353 223.953 186.403 223.825C186.439 223.453 186.237 221.224 186.012 219.21C185.527 219.241 185.038 219.272 184.545 219.303C184.107 219.331 183.659 219.36 183.203 219.389L183.202 223.505C183.202 223.701 183.044 223.86 182.848 223.86C182.653 223.86 182.494 223.701 182.494 223.505L182.496 219.433C181.446 219.499 180.352 219.566 179.218 219.633C179.235 219.673 179.243 219.718 179.243 219.764V224.396C179.243 224.591 179.085 224.75 178.89 224.75C178.694 224.75 178.536 224.591 178.536 224.396V219.764L178.541 219.7L178.549 219.672C177.731 219.719 176.892 219.765 176.033 219.811L176.032 223.505C176.032 223.701 175.874 223.86 175.679 223.86C175.483 223.86 175.325 223.701 175.325 223.505L175.325 219.847C174.315 219.899 173.278 219.948 172.216 219.994C172.221 220.016 172.223 220.039 172.223 220.063V225.001C172.223 225.197 172.064 225.356 171.869 225.356C171.674 225.356 171.515 225.197 171.515 225.001V220.063L171.519 220.023C170.316 220.073 169.082 220.118 167.817 220.157L167.816 223.954C167.816 224.15 167.658 224.308 167.463 224.308C167.267 224.308 167.109 224.15 167.109 223.954L167.109 220.178C165.998 220.21 164.864 220.236 163.709 220.257L163.708 223.505C163.708 223.701 163.55 223.86 163.354 223.86C163.159 223.86 163.001 223.701 163.001 223.505L163.001 220.269C161.959 220.285 160.9 220.296 159.825 220.301L159.825 225.001C159.825 225.197 159.666 225.356 159.471 225.356C159.276 225.356 159.117 225.197 159.117 225.001L159.118 220.303C158.122 220.306 157.113 220.303 156.09 220.294L156.09 224.396C156.09 224.591 155.932 224.75 155.736 224.75C155.541 224.75 155.382 224.591 155.382 224.396L155.383 220.287C154.457 220.277 153.521 220.262 152.575 220.241L152.58 220.074C152.513 222.177 152.485 224.519 152.552 224.864C152.617 225.017 152.566 225.2 152.422 225.296C152.362 225.337 152.294 225.356 152.226 225.356C152.112 225.356 152 225.301 151.932 225.198C151.858 225.088 151.723 224.885 151.867 220.226C150.876 220.201 149.875 220.171 148.864 220.135C148.868 221.101 148.876 223.707 148.862 225.006C148.86 225.199 148.702 225.356 148.509 225.356H148.504C148.31 225.354 148.153 225.194 148.155 224.997C148.168 223.687 148.16 221.041 148.156 220.104C147.075 220.067 145.983 220.018 144.88 219.96C144.863 220.417 144.828 221.728 144.887 223.493C144.893 223.69 144.741 223.853 144.545 223.86H144.533C144.343 223.86 144.186 223.709 144.179 223.517C144.12 221.721 144.156 220.385 144.173 219.922C143.125 219.866 142.068 219.801 141.001 219.729C141.01 219.805 140.992 219.886 140.947 219.955C140.929 219.987 140.406 220.93 140.406 224.396C140.406 224.591 140.247 224.75 140.052 224.75C139.857 224.75 139.698 224.591 139.698 224.396C139.698 221.22 140.123 220.029 140.293 219.679C139.479 219.622 138.658 219.56 137.832 219.492C137.513 219.882 136.538 221.296 136.597 223.946C136.601 224.142 136.446 224.304 136.251 224.308H136.243C136.051 224.308 135.894 224.155 135.889 223.962C135.837 221.618 136.527 220.151 137.004 219.423C136.878 219.413 136.751 219.402 136.624 219.391C136.383 219.369 136.155 219.405 135.962 219.492C135.783 219.573 135.574 219.492 135.495 219.313C135.415 219.134 135.495 218.925 135.673 218.845C135.976 218.709 136.33 218.656 136.684 218.685C156.357 220.386 173.294 219.31 184.501 218.596C188.525 218.34 191.382 218.169 193.362 218.15L193.314 218.154C193.341 218.149 193.368 218.147 193.394 218.148C195.838 218.127 196.936 218.338 197.242 218.908C198.489 221.225 197.312 224.388 197.262 224.522C197.208 224.663 197.073 224.75 196.93 224.75C196.889 224.75 196.846 224.742 196.805 224.727C196.622 224.657 196.53 224.453 196.6 224.269C196.611 224.24 197.712 221.274 196.619 219.244C196.467 218.961 195.409 218.857 193.795 218.859C193.937 219.817 194.209 222.213 193.721 224.045C193.68 224.204 193.537 224.308 193.38 224.308C193.35 224.308 193.319 224.305 193.288 224.296C193.099 224.246 192.987 224.052 193.038 223.863C193.504 222.111 193.207 219.699 193.081 218.865C192.324 218.879 191.473 218.909 190.556 218.952C190.58 218.999 190.593 219.052 190.596 219.109C190.602 219.242 190.744 222.399 190.595 223.987C190.578 224.171 190.424 224.308 190.243 224.308L190.209 224.307C190.015 224.289 189.872 224.116 189.89 223.921C190.034 222.382 189.891 219.173 189.889 219.141C189.887 219.085 189.897 219.031 189.918 218.983C188.91 219.034 187.832 219.098 186.72 219.166ZM194.785 163.436C194.973 163.426 195.151 163.559 195.172 163.755C196.196 174.135 198.929 186.748 200.112 191.916C200.981 195.659 202.171 200.596 203.517 205.643C203.568 205.832 203.456 206.027 203.267 206.077C203.236 206.085 203.205 206.089 203.176 206.089C203.018 206.089 202.876 205.985 202.834 205.826L202.665 205.193C201.661 201.397 200.748 197.688 199.998 194.531L199.983 194.466C199.973 194.429 199.765 193.573 199.432 192.118L199.413 192.037C198.506 188.126 197.951 185.525 197.941 185.475C197.927 185.413 197.931 185.352 197.949 185.296C196.686 179.179 195.173 170.976 194.467 163.823C194.448 163.629 194.59 163.455 194.785 163.436ZM136.068 160.996C136.254 161.057 136.355 161.258 136.293 161.444C134.432 167.108 132.925 177.917 132.91 178.024C132.886 178.202 132.734 178.331 132.56 178.331C132.544 178.331 132.528 178.329 132.511 178.327C132.317 178.3 132.182 178.121 132.209 177.928C132.224 177.818 133.74 166.947 135.622 161.222C135.683 161.034 135.881 160.933 136.068 160.996ZM150.92 137.71L150.935 137.718C151.008 137.758 151.068 137.823 151.099 137.908C151.244 138.296 151.397 138.671 151.564 139.031C151.75 138.402 152.177 137.629 153.119 136.92C153.274 136.802 153.497 136.833 153.615 136.989C153.732 137.146 153.701 137.368 153.545 137.485C152.039 138.62 152.116 139.893 152.147 140.139C152.638 140.956 153.232 141.684 153.984 142.319C154.018 141.402 154.411 139.824 156.202 137.769C156.332 137.621 156.556 137.609 156.701 137.735C156.849 137.864 156.864 138.089 156.735 138.237C154.511 140.787 154.647 142.466 154.726 142.879C155.537 143.426 156.505 143.887 157.677 144.257C157.711 143.579 157.913 142.236 158.788 140.112C158.862 139.931 159.068 139.844 159.249 139.919C159.431 139.994 159.516 140.201 159.441 140.382C158.501 142.666 158.383 143.973 158.379 144.461C159.191 144.678 160.093 144.857 161.098 144.996L161.098 141.673C161.098 141.477 161.257 141.319 161.452 141.319C161.647 141.319 161.806 141.477 161.806 141.673L161.805 145.085C162.542 145.169 163.331 145.234 164.177 145.279C164.184 143.615 164.229 141.087 164.229 141.087L164.936 141.099C164.936 141.1 164.891 143.652 164.885 145.311C165.26 145.326 165.648 145.336 166.046 145.343C166.891 145.359 167.692 145.341 168.451 145.293L168.463 145.43C168.289 143.433 167.945 140.622 167.942 140.594C167.918 140.4 168.056 140.222 168.25 140.199C168.443 140.171 168.62 140.313 168.645 140.508C168.648 140.536 168.978 143.24 169.157 145.239C170.267 145.138 171.281 144.974 172.205 144.765C172.43 142.975 171.469 139.924 171.458 139.892C171.398 139.706 171.502 139.506 171.687 139.446C171.876 139.387 172.073 139.491 172.132 139.677C172.174 139.807 173.065 142.63 172.933 144.587C173.663 144.393 174.331 144.172 174.942 143.935L174.943 144.025C174.943 142.825 174.106 141.278 174.098 141.263C174.004 141.091 174.067 140.877 174.238 140.782C174.41 140.687 174.625 140.751 174.719 140.923C174.753 140.986 175.498 142.359 175.631 143.649C176.281 143.363 176.856 143.06 177.36 142.757L177.341 142.924C177.58 141.271 176.291 139.316 175.866 138.675C175.751 138.499 175.715 138.446 175.693 138.379C175.631 138.193 175.731 137.992 175.915 137.93C176.091 137.872 176.279 137.957 176.351 138.122C176.37 138.153 176.407 138.208 176.456 138.284C176.859 138.894 177.985 140.598 178.072 142.301C179.126 141.579 179.784 140.907 180.119 140.522L180.159 140.474L180.166 140.415C180.273 138.803 178.266 137.516 178.244 137.503C178.08 137.398 178.029 137.179 178.133 137.014C178.237 136.85 178.452 136.797 178.621 136.902C178.707 136.957 180.393 138.034 180.793 139.616C181.24 138.898 181.45 138.219 181.369 137.699C181.338 137.506 181.47 137.325 181.664 137.294C181.853 137.267 182.037 137.395 182.068 137.59C182.216 138.543 181.7 139.781 180.652 140.988C180.244 141.457 179.379 142.329 177.946 143.219C177.904 143.264 177.851 143.297 177.792 143.315C175.533 144.68 171.929 146.057 166.584 146.057C166.402 146.057 166.219 146.056 166.033 146.052C160.967 145.964 157.055 145.404 154.254 143.411C154.222 143.395 154.192 143.374 154.166 143.348C153.152 142.609 152.285 141.676 151.564 140.504C151.517 140.461 151.482 140.405 151.464 140.34C151.098 139.719 150.77 139.033 150.481 138.276C149.432 137.69 140.826 133.567 122.524 143.505L122.344 143.603C123.335 144.801 125.874 149.224 123.539 161.4C123.507 161.569 123.358 161.687 123.193 161.687C123.171 161.687 123.148 161.685 123.125 161.681C122.934 161.643 122.808 161.458 122.845 161.265C124.982 150.121 122.927 145.674 121.974 144.301C121.495 146.054 120.564 149.05 119.177 151.83C119.115 151.953 118.99 152.025 118.861 152.025C118.808 152.025 118.754 152.013 118.702 151.988C118.527 151.9 118.457 151.687 118.544 151.512C120.053 148.488 121.012 145.2 121.429 143.605C121.411 143.543 121.411 143.476 121.43 143.411L122.476 139.959C122.533 139.772 122.728 139.666 122.918 139.723C123.104 139.779 123.21 139.978 123.153 140.165L122.359 142.788C141.375 132.523 150.225 137.3 150.92 137.71ZM105.597 129.183C105.718 129.337 105.691 129.56 105.538 129.681C103.848 131.018 103.429 132.17 103.331 132.557C103.896 132.887 104.594 133.261 105.389 133.658C105.648 132.979 106.39 131.376 108.046 129.908C108.19 129.777 108.414 129.791 108.545 129.938C108.674 130.085 108.661 130.309 108.514 130.439C106.928 131.846 106.238 133.413 106.029 133.973C106.691 134.294 107.407 134.626 108.159 134.96C108.639 134.169 109.975 131.969 110.422 131.353C110.537 131.194 110.758 131.16 110.916 131.275C111.074 131.39 111.108 131.611 110.993 131.77C110.583 132.338 109.325 134.403 108.815 135.247C109.642 135.605 110.506 135.961 111.383 136.303C111.83 135.66 113.076 133.805 113.448 132.563C113.504 132.376 113.702 132.268 113.888 132.325C114.076 132.382 114.182 132.579 114.125 132.767C113.746 134.035 112.594 135.794 112.063 136.565C113.044 136.935 114.034 137.285 115.003 137.596C115.465 136.929 116.923 134.737 116.986 133.476C116.994 133.281 117.166 133.119 117.356 133.14C117.551 133.149 117.701 133.316 117.692 133.511C117.625 134.862 116.301 136.949 115.71 137.817C116.937 138.19 118.116 138.492 119.184 138.688L119.189 138.678C120.841 136.505 121.142 134.263 121.145 134.241C121.169 134.045 121.348 133.916 121.54 133.933C121.734 133.958 121.872 134.135 121.847 134.33C121.835 134.423 121.55 136.583 119.967 138.815C120.336 138.867 120.689 138.903 121.021 138.922C122.327 138.997 123.155 138.787 123.432 138.313C124.407 136.651 124.677 135.445 124.732 134.726C124.747 134.53 124.942 134.386 125.112 134.4C125.307 134.414 125.452 134.585 125.438 134.78C125.35 135.935 124.88 137.245 124.041 138.673C123.658 139.326 122.828 139.646 121.512 139.646C121.343 139.646 121.167 139.641 120.981 139.63C118.575 139.493 114.932 138.42 111.421 137.085C111.392 137.079 111.364 137.068 111.338 137.053C106.32 135.138 101.593 132.698 101.152 131.705C101.073 131.527 101.153 131.317 101.332 131.238C101.51 131.157 101.719 131.238 101.799 131.418C101.872 131.581 102.192 131.844 102.704 132.175C102.907 131.561 103.481 130.405 105.1 129.124C105.253 129.003 105.475 129.029 105.597 129.183ZM140.213 93.9678C140.818 94.2258 140.924 94.5768 140.905 94.8256C140.865 95.3637 140.259 96.128 135.897 97.268C132.234 98.2248 131.742 99.222 131.677 99.4611C132.33 99.2481 133.055 99.1549 133.847 99.2568L133.866 99.2587C134.021 99.2783 135.071 99.483 135.288 101.287C135.58 101.359 135.852 101.491 136.091 101.702C136.729 102.266 137.037 102.857 137.006 103.461C136.979 103.973 136.709 104.363 136.493 104.596C136.919 105.115 137.092 105.949 137.007 107.085C137.007 107.173 136.981 109.867 134.951 110.523C134.897 110.542 134.828 110.554 134.75 110.554C134.605 110.554 134.428 110.51 134.266 110.386C134.121 110.274 134.004 110.113 133.916 109.902C133.532 111.018 132.937 112.382 132.022 113.872C131.955 113.982 131.839 114.041 131.72 114.041C131.657 114.041 131.592 114.024 131.535 113.989C131.369 113.886 131.317 113.668 131.419 113.501C132.845 111.177 133.465 109.147 133.728 107.972C133.731 107.921 133.734 107.868 133.738 107.813C133.744 107.748 133.765 107.689 133.798 107.638L133.807 107.595C133.891 107.157 133.912 106.908 133.913 106.9C133.929 106.704 134.114 106.558 134.292 106.574C134.487 106.589 134.633 106.759 134.619 106.954C134.615 106.999 134.581 107.412 134.43 108.098L134.425 108.187C134.367 109.497 134.639 109.779 134.698 109.824C136.273 109.351 136.3 107.08 136.3 107.058C136.388 105.868 136.19 105.131 135.712 104.839C135.038 104.429 133.76 104.799 131.912 105.942C131.733 106.054 131.679 106.087 131.614 106.108C131.43 106.167 131.229 106.062 131.17 105.875C131.116 105.698 131.205 105.512 131.372 105.443C131.404 105.425 131.462 105.388 131.541 105.339C132.293 104.873 134.53 103.488 135.934 104.155C136.072 104.019 136.284 103.755 136.299 103.419C136.316 103.044 136.089 102.646 135.623 102.235C134.421 101.176 131.537 103.106 130.527 103.939C130.375 104.063 130.152 104.042 130.028 103.891C129.904 103.74 129.926 103.516 130.077 103.392C130.207 103.285 132.607 101.324 134.564 101.226C134.381 100.055 133.794 99.9648 133.767 99.9608C130.5 99.5333 128.395 103.127 128.374 103.163C128.309 103.277 128.189 103.341 128.066 103.341C128.006 103.341 127.946 103.326 127.891 103.294C127.721 103.197 127.662 102.981 127.759 102.811C127.827 102.693 128.99 100.696 131.004 99.7305C130.991 99.7066 130.981 99.6801 130.975 99.6523C130.906 99.3644 130.813 97.8636 135.719 96.5817C139.904 95.4885 140.182 94.8327 140.198 94.7739C140.19 94.7739 140.135 94.7051 139.935 94.62C139.755 94.5427 139.672 94.3343 139.748 94.1542C139.825 93.9741 140.033 93.8905 140.213 93.9678Z" fill="black"/>
<path fill-rule="evenodd" clip-rule="evenodd" d="M182.539 116.886C182.828 124.915 174.882 131.577 167.166 131.577C159.45 131.577 151.622 125.817 151.286 117.612C150.957 109.584 156.754 100.574 162.549 99.7958C174.35 98.2106 182.185 107.061 182.539 116.886Z" fill="black"/>
<path fill-rule="evenodd" clip-rule="evenodd" d="M167.166 130.868C160.102 130.868 152.32 125.53 151.993 117.583C151.683 110.017 157.157 101.235 162.643 100.498C163.525 100.38 164.407 100.32 165.262 100.32C175.636 100.32 181.542 108.868 181.832 116.911C181.949 120.16 180.617 123.399 178.082 126.033C175.166 129.06 171.085 130.868 167.166 130.868Z" fill="#C3986A"/>
<path fill-rule="evenodd" clip-rule="evenodd" d="M148.138 105.946L153.758 102.014L156.88 104.963L156.434 100.585L183.283 90.0393L179.731 110.149L158.86 109.341L157.844 117.845C157.765 118.503 157.208 118.998 156.547 118.998C156.547 118.998 155.743 117.568 154.583 118.104C153.424 118.641 153.614 121.947 156.719 121.947L156.761 128.072C156.761 128.072 153.758 126.934 150.784 121.926C150.535 121.507 146.461 114.35 148.138 105.946Z" fill="#AD3409"/>
<path fill-rule="evenodd" clip-rule="evenodd" d="M183.612 89.9102C183.541 89.728 183.334 89.6379 183.154 89.7095L156.305 100.254C156.157 100.312 156.065 100.462 156.082 100.62L156.431 104.052L154 101.756C153.859 101.621 153.635 101.628 153.5 101.771C153.366 101.913 153.373 102.138 153.516 102.272L156.637 105.221C156.704 105.284 156.792 105.317 156.88 105.317C156.933 105.317 156.986 105.305 157.036 105.281C157.169 105.215 157.247 105.074 157.232 104.927L156.813 100.816L183.412 90.3696C183.594 90.298 183.684 90.0924 183.612 89.9102ZM158.195 117.887L159.392 107.992C159.416 107.798 159.278 107.621 159.085 107.598C158.895 107.577 158.714 107.713 158.69 107.907L157.493 117.803C157.442 118.22 157.128 118.548 156.73 118.626C156.322 118.041 155.465 117.307 154.435 117.782C154.258 117.864 154.181 118.076 154.262 118.253C154.345 118.432 154.554 118.507 154.732 118.427C155.58 118.033 156.212 119.126 156.238 119.173C156.302 119.284 156.419 119.353 156.547 119.353C157.386 119.353 158.095 118.723 158.195 117.887ZM177.007 109.689L179.171 98.4172C179.207 98.2251 179.082 98.0386 178.89 98.0017C178.7 97.9649 178.513 98.0904 178.475 98.2832L176.29 109.662L173.686 109.561L174.268 105.008C174.293 104.814 174.156 104.636 173.961 104.611C173.772 104.588 173.591 104.724 173.566 104.918L172.976 109.533L170.674 109.444C170.459 109.436 170.315 109.589 170.306 109.784C170.299 109.981 170.451 110.145 170.646 110.152L180.41 110.495C180.682 110.495 180.816 109.795 180.682 109.444C180.439 108.806 180.08 108.251 180.107 108.172C180.186 107.938 179.819 109.798 179.738 109.795L177.007 109.689Z" fill="black"/>
<path fill-rule="evenodd" clip-rule="evenodd" d="M169.629 126.035C168.559 124.42 166.61 124.43 165.355 124.647C165.552 124.921 165.796 125.166 166.082 125.362C166.883 125.91 168.094 126.385 169.629 126.035Z" fill="#EC7068"/>
<path fill-rule="evenodd" clip-rule="evenodd" d="M167.503 115.382C167.572 115.451 167.663 115.485 167.753 115.485C167.843 115.485 167.934 115.451 168.003 115.382C168.141 115.244 168.141 115.019 168.003 114.881C165.278 112.15 162.022 114.832 161.99 114.86C161.84 114.986 161.821 115.208 161.946 115.358C162.071 115.507 162.294 115.529 162.445 115.403C162.558 115.309 165.241 113.116 167.503 115.382ZM179.244 114.86C179.213 114.832 175.954 112.154 173.232 114.881C173.093 115.019 173.093 115.244 173.232 115.382C173.3 115.451 173.391 115.485 173.481 115.485C173.572 115.485 173.663 115.451 173.732 115.382C175.995 113.115 178.677 115.309 178.789 115.403C178.94 115.529 179.164 115.507 179.288 115.358C179.414 115.208 179.394 114.986 179.244 114.86ZM162.604 112.596C162.677 112.596 162.749 112.574 162.812 112.528C164.256 111.477 165.697 111.68 165.713 111.682C165.904 111.711 166.086 111.58 166.116 111.386C166.145 111.193 166.014 111.012 165.822 110.982C165.752 110.97 164.087 110.723 162.396 111.955C162.238 112.07 162.203 112.291 162.318 112.45C162.387 112.545 162.495 112.596 162.604 112.596ZM175.521 111.682C175.537 111.68 176.978 111.477 178.422 112.528C178.485 112.574 178.557 112.596 178.63 112.596C178.739 112.596 178.847 112.545 178.916 112.45C179.031 112.291 178.996 112.07 178.838 111.955C177.147 110.723 175.481 110.97 175.412 110.982C175.219 111.012 175.089 111.193 175.118 111.386C175.148 111.58 175.333 111.712 175.521 111.682ZM170.914 125.578C168.757 126.655 167.096 126.056 166.082 125.363C165.568 125.01 165.176 124.509 164.98 123.948C164.859 123.604 164.884 123.448 164.918 123.411C165.129 123.178 166.414 123.485 167.352 123.71C168.476 123.98 169.751 124.286 170.922 124.289C171.119 124.289 171.246 124.405 171.3 124.634C171.376 124.957 171.25 125.41 170.914 125.578ZM170.923 123.58C169.835 123.578 168.604 123.281 167.517 123.02C165.99 122.653 164.886 122.389 164.392 122.936C164.02 123.349 164.239 123.976 164.312 124.182C164.557 124.884 165.044 125.512 165.684 125.948C166.286 126.36 167.3 126.871 168.613 126.871C169.388 126.871 170.268 126.693 171.23 126.212C171.908 125.873 172.128 125.063 171.99 124.472C171.861 123.923 171.452 123.58 170.923 123.58ZM171.903 120.284C171.698 120.715 171.136 120.934 170.232 120.934C169.328 120.934 168.766 120.715 168.561 120.284C168.07 119.245 169.416 117.092 170.232 116C171.048 117.092 172.394 119.245 171.903 120.284ZM169.958 115.199C169.661 115.563 167.08 118.808 167.922 120.587C168.254 121.288 169.031 121.643 170.232 121.643C171.433 121.643 172.21 121.288 172.542 120.587C173.384 118.808 170.803 115.563 170.506 115.199C170.372 115.034 170.092 115.034 169.958 115.199Z" fill="black"/>
<path fill-rule="evenodd" clip-rule="evenodd" d="M163.657 117.335C165.025 117.335 166.135 117.97 166.135 118.753C166.135 119.536 165.025 120.171 163.657 120.171C162.289 120.171 161.181 119.536 161.181 118.753C161.181 117.97 162.289 117.335 163.657 117.335ZM176.397 117.335C177.764 117.335 178.874 117.97 178.874 118.753C178.874 119.536 177.764 120.171 176.397 120.171C175.029 120.171 173.92 119.536 173.92 118.753C173.92 117.97 175.029 117.335 176.397 117.335Z" fill="#E2A2B5"/>
<path fill-rule="evenodd" clip-rule="evenodd" d="M268.555 42.1838H375.419V1.06348H268.555V42.1838Z" fill="#F1EFEF"/>
<path fill-rule="evenodd" clip-rule="evenodd" d="M375.579 0.93811C375.754 0.93811 375.896 1.08083 375.896 1.25668V42.2049C375.896 42.3807 375.754 42.5234 375.579 42.5234H268.724C268.548 42.5234 268.406 42.3807 268.406 42.2049C268.406 42.029 268.548 41.8863 268.724 41.8863H375.261V1.25668C375.261 1.08083 375.403 0.93811 375.579 0.93811ZM312.172 7.2503C312.348 7.2503 312.49 7.39238 312.49 7.56886V36.6121C312.49 36.788 312.348 36.9307 312.172 36.9307H275.633C275.457 36.9307 275.315 36.788 275.315 36.6121V7.56886C275.315 7.39238 275.457 7.2503 275.633 7.2503H312.172ZM311.855 7.88743H275.951V36.2936H311.855V7.88743Z" fill="black"/>
<path fill-rule="evenodd" clip-rule="evenodd" d="M227.118 111.631H337.657V38.356H227.118V111.631Z" fill="#F1EFEF"/>
<path fill-rule="evenodd" clip-rule="evenodd" d="M303.881 144.985H372.969V83.6144H303.881V144.985Z" fill="#F1EFEF"/>
<path fill-rule="evenodd" clip-rule="evenodd" d="M372.968 120.252V144.985H303.881V120.252H372.968ZM337.657 31.891V38.356H227.118V31.891H337.657Z" fill="#94B1EB"/>
<path fill-rule="evenodd" clip-rule="evenodd" d="M358.691 128.555C358.867 128.555 359.009 128.697 359.009 128.873V137.904C359.009 138.08 358.867 138.223 358.691 138.223H318.159C317.984 138.223 317.842 138.08 317.842 137.904V128.873C317.842 128.697 317.984 128.555 318.159 128.555H358.691ZM358.373 129.192H318.477V137.585H358.373V129.192ZM372.969 83.296C373.145 83.296 373.287 83.4381 373.287 83.6146C373.287 83.7904 373.145 83.9332 372.969 83.9332H304.199V136.159C304.199 136.335 304.057 136.478 303.881 136.478C303.706 136.478 303.564 136.335 303.564 136.159V83.6146C303.564 83.4381 303.706 83.296 303.881 83.296H372.969ZM372.969 119.934C373.144 119.934 373.287 120.076 373.287 120.252C373.287 120.428 373.144 120.571 372.969 120.571H317.494C317.319 120.571 317.176 120.428 317.176 120.252C317.176 120.076 317.319 119.934 317.494 119.934H372.969ZM367.851 112.031C368.027 112.031 368.169 112.174 368.169 112.35C368.169 112.526 368.027 112.669 367.851 112.669H327.729C327.554 112.669 327.412 112.526 327.412 112.35C327.412 112.174 327.554 112.031 327.729 112.031H367.851ZM315.038 94.7899C319.277 94.7899 322.725 98.2477 322.725 102.498C322.725 106.748 319.277 110.206 315.038 110.206C310.799 110.206 307.351 106.748 307.351 102.498C307.351 98.2477 310.799 94.7899 315.038 94.7899ZM315.038 95.4271C311.15 95.4271 307.986 98.5994 307.986 102.498C307.986 106.397 311.15 109.568 315.038 109.568C318.926 109.568 322.09 106.397 322.09 102.498C322.09 98.5994 318.926 95.4271 315.038 95.4271ZM367.851 103.411C368.027 103.411 368.169 103.553 368.169 103.729C368.169 103.905 368.027 104.048 367.851 104.048H327.729C327.554 104.048 327.412 103.905 327.412 103.729C327.412 103.553 327.554 103.411 327.729 103.411H367.851ZM367.851 94.7899C368.027 94.7899 368.169 94.9327 368.169 95.1085C368.169 95.2844 368.027 95.4271 367.851 95.4271H327.729C327.554 95.4271 327.412 95.2844 327.412 95.1085C327.412 94.9327 327.554 94.7899 327.729 94.7899H367.851Z" fill="black"/>
<path fill-rule="evenodd" clip-rule="evenodd" d="M278.396 46.9663C278.572 46.9663 278.713 47.109 278.713 47.2848V103.729C278.713 103.905 278.572 104.047 278.396 104.047H233.771C233.595 104.047 233.454 103.905 233.454 103.729V47.2848C233.454 47.109 233.595 46.9663 233.771 46.9663H278.396ZM278.079 47.6034H234.089V103.41H278.079V47.6034ZM331.209 64.8232C331.385 64.8232 331.527 64.966 331.527 65.1418C331.527 65.3177 331.385 65.4604 331.209 65.4604H284.538C284.361 65.4604 284.22 65.3177 284.22 65.1418C284.22 64.966 284.361 64.8232 284.538 64.8232H331.209ZM331.209 58.871C331.385 58.871 331.527 59.0137 331.527 59.1895C331.527 59.3654 331.385 59.5081 331.209 59.5081H284.538C284.361 59.5081 284.22 59.3654 284.22 59.1895C284.22 59.0137 284.361 58.871 284.538 58.871H331.209ZM331.209 52.9186C331.385 52.9186 331.527 53.0614 331.527 53.2372C331.527 53.4131 331.385 53.5558 331.209 53.5558H284.538C284.361 53.5558 284.22 53.4131 284.22 53.2372C284.22 53.0614 284.361 52.9186 284.538 52.9186H331.209ZM331.209 46.9663C331.385 46.9663 331.527 47.109 331.527 47.2849C331.527 47.4607 331.385 47.6035 331.209 47.6035H284.538C284.361 47.6035 284.22 47.4607 284.22 47.2849C284.22 47.109 284.361 46.9663 284.538 46.9663H331.209ZM337.657 31.5726C337.833 31.5726 337.975 31.7147 337.975 31.8912V38.3562C337.975 38.5321 337.833 38.6748 337.657 38.6748H227.118C226.943 38.6748 226.801 38.5321 226.801 38.3562C226.801 38.1804 226.943 38.0377 227.118 38.0377H337.34V31.8912C337.34 31.7147 337.482 31.5726 337.657 31.5726ZM241.544 33.2143C242.565 33.2143 243.397 34.0477 243.397 35.0722C243.397 36.0968 242.565 36.9308 241.544 36.9308C240.523 36.9308 239.691 36.0968 239.691 35.0722C239.691 34.0477 240.523 33.2143 241.544 33.2143ZM248.094 33.2143C249.115 33.2143 249.947 34.0477 249.947 35.0722C249.947 36.0968 249.115 36.9308 248.094 36.9308C247.073 36.9308 246.241 36.0968 246.241 35.0722C246.241 34.0477 247.073 33.2143 248.094 33.2143ZM254.645 33.2143C255.666 33.2143 256.498 34.0477 256.498 35.0722C256.498 36.0968 255.666 36.9308 254.645 36.9308C253.624 36.9308 252.792 36.0968 252.792 35.0722C252.792 34.0477 253.624 33.2143 254.645 33.2143ZM241.544 33.8515C240.872 33.8515 240.326 34.3988 240.326 35.0722C240.326 35.7457 240.872 36.2936 241.544 36.2936C242.216 36.2936 242.761 35.7457 242.761 35.0722C242.761 34.3988 242.216 33.8515 241.544 33.8515ZM248.094 33.8515C247.423 33.8515 246.877 34.3988 246.877 35.0722C246.877 35.7457 247.423 36.2936 248.094 36.2936C248.766 36.2936 249.312 35.7457 249.312 35.0722C249.312 34.3988 248.766 33.8515 248.094 33.8515ZM254.645 33.8515C253.973 33.8515 253.427 34.3988 253.427 35.0722C253.427 35.7457 253.973 36.2936 254.645 36.2936C255.316 36.2936 255.862 35.7457 255.862 35.0722C255.862 34.3988 255.316 33.8515 254.645 33.8515Z" fill="black"/>
<path fill-rule="evenodd" clip-rule="evenodd" d="M351.617 59.6241L361.446 62.5416C362.084 62.7308 362.289 63.5362 361.818 64.0083L359.179 66.6532L363.427 70.9123C363.924 71.4099 363.924 72.2165 363.427 72.7141C363.179 72.9632 362.854 73.0875 362.529 73.0875C362.203 73.0875 361.879 72.9632 361.63 72.7141L357.382 68.4547L354.898 70.9462C354.428 71.4183 353.625 71.2138 353.436 70.5741L350.526 60.7181C350.329 60.0491 350.949 59.426 351.617 59.6241Z" fill="black"/>
</svg>
